<!--?xml version="1.0" standalone="no"?-->
              <svg id="sw-js-blob-svg" viewBox="0 0 100 100" xmlns="http://www.w3.org/2000/svg" version="1.1">
                    <defs> 
                        <linearGradient id="sw-gradient" x1="0" x2="1" y1="1" y2="0">
                            <stop id="stop1" stop-color="rgba(255, 255, 255, 1)" offset="0%"></stop>
                            <stop id="stop2" stop-color="rgba(255, 255, 255, 1)" offset="100%"></stop>
                        </linearGradient>
                    </defs>
                <path fill="url(#sw-gradient)" d="M26.9,-31.6C33.2,-26.7,35.5,-16.7,37.2,-6.6C38.9,3.4,39.9,13.6,36.4,22.3C32.9,31,24.7,38.3,15.9,39.8C7.1,41.3,-2.4,37,-12.1,33.4C-21.7,29.8,-31.5,26.8,-36.6,20.1C-41.7,13.4,-42.1,3,-40.1,-6.9C-38.1,-16.7,-33.8,-25.9,-26.7,-30.6C-19.6,-35.3,-9.8,-35.5,0.2,-35.8C10.3,-36.1,20.6,-36.4,26.9,-31.6Z" width="100%" height="100%" transform="translate(50 50)" stroke-width="0" style="transition: all 0.3s ease 0s;"></path>
              </svg>