<svg width="66" height="29" viewBox="0 0 66 29" fill="none" xmlns="http://www.w3.org/2000/svg">
<circle cx="14.5" cy="14.5" r="14" fill="url(#paint0_linear_1_1508)" stroke="white"/>
<g clip-path="url(#clip0_1_1508)">
<path d="M14.9996 11.3677C12.9786 11.3677 11.3681 13.0098 11.3681 14.9993C11.3681 17.0204 12.9786 18.6309 14.9996 18.6309C16.9891 18.6309 18.6312 17.0204 18.6312 14.9993C18.6312 13.0098 16.9891 11.3677 14.9996 11.3677ZM14.9996 17.3677C13.7049 17.3677 12.6312 16.3256 12.6312 14.9993C12.6312 13.7046 13.6733 12.6625 14.9996 12.6625C16.2944 12.6625 17.3365 13.7046 17.3365 14.9993C17.3365 16.3256 16.2944 17.3677 14.9996 17.3677ZM19.6102 11.2414C19.6102 10.7677 19.2312 10.3888 18.7575 10.3888C18.2838 10.3888 17.9049 10.7677 17.9049 11.2414C17.9049 11.7151 18.2838 12.094 18.7575 12.094C19.2312 12.094 19.6102 11.7151 19.6102 11.2414ZM22.0102 12.094C21.947 10.9572 21.6944 9.94667 20.8733 9.12562C20.0523 8.30456 19.0417 8.05193 17.9049 7.98877C16.7365 7.92562 13.2312 7.92562 12.0628 7.98877C10.9259 8.05193 9.947 8.30456 9.09437 9.12562C8.27331 9.94667 8.02068 10.9572 7.95752 12.094C7.89437 13.2625 7.89437 16.7677 7.95752 17.9361C8.02068 19.073 8.27331 20.0519 9.09437 20.9046C9.947 21.7256 10.9259 21.9782 12.0628 22.0414C13.2312 22.1046 16.7365 22.1046 17.9049 22.0414C19.0417 21.9782 20.0523 21.7256 20.8733 20.9046C21.6944 20.0519 21.947 19.073 22.0102 17.9361C22.0733 16.7677 22.0733 13.2625 22.0102 12.094ZM20.4944 19.1677C20.2733 19.7993 19.7681 20.273 19.1681 20.5256C18.2207 20.9046 16.0102 20.8098 14.9996 20.8098C13.9575 20.8098 11.747 20.9046 10.8312 20.5256C10.1996 20.273 9.72595 19.7993 9.47331 19.1677C9.09437 18.2519 9.1891 16.0414 9.1891 14.9993C9.1891 13.9888 9.09437 11.7782 9.47331 10.8309C9.72595 10.2309 10.1996 9.7572 10.8312 9.50456C11.747 9.12562 13.9575 9.22035 14.9996 9.22035C16.0102 9.22035 18.2207 9.12562 19.1681 9.50456C19.7681 9.72562 20.2417 10.2309 20.4944 10.8309C20.8733 11.7782 20.7786 13.9888 20.7786 14.9993C20.7786 16.0414 20.8733 18.2519 20.4944 19.1677Z" fill="white"/>
</g>
<rect x="37.5" y="0.5" width="28" height="28" rx="14" fill="url(#paint1_linear_1_1508)" stroke="white"/>
<g filter="url(#filter0_i_1_1508)">
<g filter="url(#filter1_i_1_1508)">
<path d="M53.6851 15.5509L54.0288 13.3323H51.9114V11.8902C51.9114 11.2835 52.2071 10.6907 53.1523 10.6907H54.1285V8.80141C53.56 8.70931 52.9856 8.65949 52.4099 8.65234C50.6671 8.65234 49.5294 9.7166 49.5294 11.6406V13.3323H47.5977V15.5509H49.5294V20.9173H51.9114V15.5509H53.6851Z" fill="white"/>
</g>
</g>
<defs>
<filter id="filter0_i_1_1508" x="43.9062" y="7.75" width="13.5" height="13.6734" filterUnits="userSpaceOnUse" color-interpolation-filters="sRGB">
<feFlood flood-opacity="0" result="BackgroundImageFix"/>
<feBlend mode="normal" in="SourceGraphic" in2="BackgroundImageFix" result="shape"/>
<feColorMatrix in="SourceAlpha" type="matrix" values="0 0 0 0 0 0 0 0 0 0 0 0 0 0 0 0 0 0 127 0" result="hardAlpha"/>
<feOffset dy="0.173444"/>
<feGaussianBlur stdDeviation="0.433609"/>
<feComposite in2="hardAlpha" operator="arithmetic" k2="-1" k3="1"/>
<feColorMatrix type="matrix" values="0 0 0 0 0 0 0 0 0 0 0 0 0 0 0 0 0 0 0.1 0"/>
<feBlend mode="normal" in2="shape" result="effect1_innerShadow_1_1508"/>
</filter>
<filter id="filter1_i_1_1508" x="47.5977" y="8.65234" width="6.53088" height="12.4384" filterUnits="userSpaceOnUse" color-interpolation-filters="sRGB">
<feFlood flood-opacity="0" result="BackgroundImageFix"/>
<feBlend mode="normal" in="SourceGraphic" in2="BackgroundImageFix" result="shape"/>
<feColorMatrix in="SourceAlpha" type="matrix" values="0 0 0 0 0 0 0 0 0 0 0 0 0 0 0 0 0 0 127 0" result="hardAlpha"/>
<feOffset dy="0.173444"/>
<feGaussianBlur stdDeviation="0.346888"/>
<feComposite in2="hardAlpha" operator="arithmetic" k2="-1" k3="1"/>
<feColorMatrix type="matrix" values="0 0 0 0 0 0 0 0 0 0 0 0 0 0 0 0 0 0 0.2 0"/>
<feBlend mode="normal" in2="shape" result="effect1_innerShadow_1_1508"/>
</filter>
<linearGradient id="paint0_linear_1_1508" x1="18.5821" y1="48.1321" x2="56.915" y2="10.3542" gradientUnits="userSpaceOnUse">
<stop stop-color="white"/>
<stop offset="0.147864" stop-color="#F6640E"/>
<stop offset="0.443974" stop-color="#BA03A7"/>
<stop offset="0.733337" stop-color="#6A01B9"/>
<stop offset="1" stop-color="#6B01B9"/>
</linearGradient>
<linearGradient id="paint1_linear_1_1508" x1="51.5" y1="27.2111" x2="51.5" y2="1" gradientUnits="userSpaceOnUse">
<stop stop-color="#0062E0"/>
<stop offset="1" stop-color="#19AFFF"/>
</linearGradient>
<clipPath id="clip0_1_1508">
<rect width="16" height="16" fill="white" transform="translate(7 7)"/>
</clipPath>
</defs>
</svg>
