<svg width="32" height="32" viewBox="0 0 32 32" fill="none" xmlns="http://www.w3.org/2000/svg">
<rect width="32" height="32" rx="16" fill="#FFC700"/>
<path fill-rule="evenodd" clip-rule="evenodd" d="M14.4379 12.9178V12.9178C14.4379 12.0667 15.1251 11.3761 15.9734 11.3761V11.3761C16.8211 11.3761 17.5089 12.0661 17.5089 12.9178V12.9178C17.5089 13.7689 16.8217 14.4594 15.9734 14.4594V14.4594C15.1251 14.4583 14.4379 13.7683 14.4379 12.9178Z" stroke="#1F1F1F" stroke-width="1.5" stroke-linecap="round" stroke-linejoin="round"/>
<path fill-rule="evenodd" clip-rule="evenodd" d="M10.7167 19.0822V19.0822C10.7167 18.2311 11.4039 17.5405 12.2522 17.5405V17.5405C13.0999 17.5405 13.7877 18.2305 13.7877 19.0822V19.0822C13.7872 19.9333 13.1005 20.6239 12.2522 20.6239V20.6239C11.4039 20.6239 10.7167 19.9339 10.7167 19.0822Z" stroke="#1F1F1F" stroke-width="1.5" stroke-linecap="round" stroke-linejoin="round"/>
<path fill-rule="evenodd" clip-rule="evenodd" d="M18.1597 19.0822V19.0822C18.1597 18.2311 18.8469 17.5405 19.6952 17.5405V17.5405C20.5429 17.5405 21.2307 18.2305 21.2307 19.0822V19.0822C21.2307 19.9333 20.5435 20.6239 19.6952 20.6239V20.6239C18.8464 20.6239 18.1597 19.9339 18.1597 19.0822V19.0822Z" stroke="#1F1F1F" stroke-width="1.5" stroke-linecap="round" stroke-linejoin="round"/>
<path d="M14.0312 15.9555L12.9189 17.6999" stroke="#1F1F1F" stroke-width="1.5" stroke-linecap="round" stroke-linejoin="round"/>
<path d="M16.8034 14.2111L17.9156 15.9556" stroke="#1F1F1F" stroke-width="1.5" stroke-linecap="round" stroke-linejoin="round"/>
<path d="M18.1591 19.0833H15.9734" stroke="#1F1F1F" stroke-width="1.5" stroke-linecap="round" stroke-linejoin="round"/>
</svg>
