<svg width="1294" height="267" viewBox="0 0 1294 267" fill="none" xmlns="http://www.w3.org/2000/svg">
<path d="M1505.5 73.0888C1484.74 62.0621 1410.36 53.7988 1278.89 108.96C1114.55 177.91 1031.48 270.086 880.652 345.57C769.331 401.283 480.576 516.174 336.587 508.216" stroke="#CFAC2D" stroke-width="1.48"/>
<path d="M1462.23 64.1152C1441.47 53.0885 1367.08 44.8252 1235.61 99.9859C1071.28 168.937 988.205 261.112 837.379 336.596C726.057 392.309 437.302 507.2 293.313 499.242" stroke="#CFAC2D" stroke-width="1.48"/>
<path d="M1420.26 54.2148C1399.5 43.1881 1325.11 34.9248 1193.64 90.0855C1029.31 159.036 946.236 251.212 795.41 326.696C684.089 382.409 395.334 497.3 251.345 489.342" stroke="#CFAC2D" stroke-width="1.48"/>
<path d="M1379.58 43.415C1358.82 32.3882 1284.44 24.125 1152.97 79.2857C988.632 148.237 905.561 240.412 754.734 315.896C643.413 371.609 354.658 486.5 210.669 478.542" stroke="#CFAC2D" stroke-width="1.48"/>
<path d="M1340.28 31.6982C1319.52 20.6714 1245.13 12.4082 1113.66 67.5689C949.328 136.52 866.256 228.695 715.429 304.179C604.108 359.892 315.353 474.783 171.364 466.825" stroke="#CFAC2D" stroke-width="1.48"/>
<path d="M1302.44 19.0185C1281.68 7.99176 1207.3 -0.271516 1075.83 54.8892C911.492 123.84 828.42 216.015 677.593 291.5C566.272 347.212 277.517 462.104 133.528 454.145" stroke="#CFAC2D" stroke-width="1.48"/>
<path d="M1266.23 5.3056C1245.47 -5.72113 1171.09 -13.9844 1039.62 41.1763C875.281 110.127 792.209 202.302 641.383 277.787C530.061 333.5 241.306 448.391 97.3172 440.432" stroke="#CFAC2D" stroke-width="1.48"/>
<path d="M1231.85 -9.52735C1211.09 -20.5541 1136.7 -28.8174 1005.23 26.3434C840.894 95.2942 757.822 187.47 606.996 262.954C495.675 318.667 206.92 433.558 62.9305 425.599" stroke="#CFAC2D" stroke-width="1.48"/>
<path d="M1199.53 -25.5898C1178.77 -36.6165 1104.38 -44.8798 972.914 10.2809C808.578 79.2318 725.506 171.407 574.68 246.891C463.358 302.604 174.603 417.495 30.6143 409.537" stroke="#CFAC2D" stroke-width="1.48"/>
<path d="M1169.61 -43.0196C1148.85 -54.0463 1074.46 -62.3096 942.992 -7.1489C778.656 61.802 695.584 153.977 544.758 229.461C433.436 285.174 144.681 400.065 0.692213 392.107" stroke="#CFAC2D" stroke-width="1.48"/>
<path d="M1142.49 -61.9766C1121.73 -73.0034 1047.34 -81.2666 915.871 -26.1059C751.535 42.845 668.463 135.02 517.636 210.504C406.315 266.217 117.56 381.108 -26.4289 373.15" stroke="#CFAC2D" stroke-width="1.48"/>
<path d="M1118.69 -82.6583C1097.93 -93.685 1023.55 -101.948 892.078 -46.7876C727.742 22.1633 644.67 114.339 493.843 189.823C382.522 245.536 93.7672 360.427 -50.2219 352.469" stroke="#CFAC2D" stroke-width="1.48"/>
<path d="M1098.9 -105.29C1078.14 -116.317 1003.75 -124.58 872.285 -69.4192C707.949 -0.468337 624.877 91.707 474.051 167.191C362.729 222.904 73.9743 337.795 -70.0148 329.837" stroke="#CFAC2D" stroke-width="1.48"/>
<path d="M1083.97 -130.119C1063.21 -141.146 988.821 -149.409 857.351 -94.2483C693.015 -25.2974 609.943 66.8779 459.117 142.362C347.796 198.075 59.0405 312.966 -84.9485 305.008" stroke="#CFAC2D" stroke-width="1.48"/>
<path d="M1074.97 -157.396C1054.21 -168.423 979.825 -176.686 848.355 -121.526C684.019 -52.5747 600.947 39.6006 450.121 115.085C338.8 170.798 50.0445 285.689 -93.9445 277.73" stroke="#CFAC2D" stroke-width="1.48"/>
<path d="M1073.2 -187.314C1052.44 -198.34 978.051 -206.604 846.582 -151.443C682.245 -82.492 599.174 9.68336 448.347 85.1675C337.026 140.88 48.2711 255.772 -95.718 247.813" stroke="#CFAC2D" stroke-width="1.48"/>
<path d="M1080.02 -219.904C1059.26 -230.931 984.871 -239.194 853.402 -184.034C689.066 -115.083 605.994 -22.9075 455.168 52.5767C343.846 108.29 55.0914 223.181 -88.8977 215.222" stroke="#CFAC2D" stroke-width="1.48"/>
<path d="M1099.44 -261.183C1078.68 -272.209 1004.3 -280.473 872.828 -225.312C708.492 -156.361 625.42 -64.1858 474.593 11.2984C363.272 67.0113 74.5172 181.902 -69.4718 173.944" stroke="#CFAC2D" stroke-width="1.48"/>
<path d="M1114.17 -295.775C1093.41 -306.802 1019.03 -315.065 887.559 -259.905C723.222 -190.954 640.15 -98.7786 489.324 -23.2944C378.003 32.4186 89.2477 147.31 -54.7414 139.351" stroke="#CFAC2D" stroke-width="1.48"/>
<path d="M1123.49 -329.045C1102.73 -340.072 1028.34 -348.335 896.871 -293.175C732.535 -224.224 649.463 -132.048 498.637 -56.5642C387.315 -0.851221 98.5603 114.04 -45.4288 106.082" stroke="#CFAC2D" stroke-width="1.48"/>
<path d="M1127.33 -360.77C1106.57 -371.796 1032.19 -380.06 900.719 -324.899C736.382 -255.948 653.311 -163.773 502.484 -88.2885C391.163 -32.5756 102.408 82.3154 -41.5812 74.3572" stroke="#CFAC2D" stroke-width="1.48"/>
<path d="M1125.79 -390.767C1105.03 -401.793 1030.64 -410.057 899.176 -354.896C734.839 -285.945 651.768 -193.77 500.941 -118.286C389.62 -62.5727 100.865 52.3184 -43.1242 44.3601" stroke="#CFAC2D" stroke-width="1.48"/>
<path d="M1119.04 -418.904C1098.28 -429.931 1023.89 -438.194 892.426 -383.034C728.089 -314.083 645.018 -221.907 494.191 -146.423C382.87 -90.7104 94.1149 24.1807 -49.8742 16.2224" stroke="#CFAC2D" stroke-width="1.48"/>
<path d="M1107.36 -445.105C1086.6 -456.131 1012.22 -464.395 880.746 -409.234C716.41 -340.283 633.338 -248.108 482.511 -172.623C371.19 -116.911 82.4352 -2.01951 -61.5539 -9.97776" stroke="#CFAC2D" stroke-width="1.48"/>
<path d="M1091.06 -469.332C1070.3 -480.359 995.911 -488.622 864.441 -433.461C700.105 -364.51 617.033 -272.335 466.207 -196.851C354.886 -141.138 66.1305 -26.2468 -77.8586 -34.2051" stroke="#CFAC2D" stroke-width="1.48"/>
</svg>
