<svg width="310" height="531" viewBox="0 0 310 531" fill="none" xmlns="http://www.w3.org/2000/svg">
<path d="M0.457934 271.634C1.94417 256.227 8.53977 244.974 16.2434 235.492C75.2027 162.972 197.749 182.638 263.571 118.769C286.128 96.8838 301.209 65.8783 320.259 39.6423C332.027 23.4375 345.605 8.85843 364.459 2.83103C383.313 -3.19637 408.162 0.156476 433.505 17.5356C456.006 32.9677 476.64 57.6547 495.437 82.3834C521.677 116.919 547.897 157.529 552.281 192.877C555.117 215.757 548.197 232.603 540.094 247.113C522.712 278.251 499.324 302.926 470.968 320.062C434.007 342.403 388.272 352.353 360.543 387.156C334.828 419.433 326.446 471.003 300.444 502.924C281.794 525.819 252.921 537.844 216.702 526.919C180.483 515.993 136.827 478.766 113.786 432.922C102.825 411.119 95.2463 386.191 78.1264 369.627C58.939 351.056 39.0258 351.116 19.4157 331.282C2.69831 314.367 -1.02347 287.065 0.468357 271.637L0.457934 271.634Z" fill="#FFF3CC"/>
</svg>
