<svg width="302" height="361" viewBox="0 0 302 361" fill="none" xmlns="http://www.w3.org/2000/svg">
<path d="M218.371 675.07C238.87 703.328 268.934 723.671 301.427 734.26C306.079 735.735 310.766 736.933 315.522 737.801C320.278 738.669 325.12 739.224 330.015 739.415C388.181 741.706 435.863 694.615 469.675 647.211C503.471 599.807 534.558 545.738 587.308 521.09C598.903 515.674 611.418 511.769 621.607 504.01C625.686 500.903 629.21 497.345 632.247 493.439C635.285 489.534 637.819 485.264 639.902 480.716C653.545 451.503 626.294 427.358 609.474 405.054C606.61 400.975 603.104 392.47 607.183 389.605C696.072 320.105 721.535 179.977 646.429 106.571C618.865 80.2222 591.63 56.0776 568.423 21.206C538.568 -20.5739 468.721 10.0451 426.871 33.1655C424.077 34.9013 421.351 36.6544 418.661 38.4075C402.518 48.9436 387.938 59.6186 374.104 70.0853C369.487 73.5742 364.904 77.011 360.079 80.1701C354.333 82.2009 348.033 85.3948 342.686 87.3041C306.791 96.0003 252.704 65.6938 234.947 105.512C229.636 115.319 244.216 130.056 237.03 142.397C232.656 150.937 221.009 156.041 210.959 157.36C207.696 157.985 204.38 158.557 200.978 159.078C197.594 159.599 194.122 160.085 190.598 160.519C154.564 164.928 118.321 176.609 87.1987 195.911C82.7551 198.671 78.4157 201.587 74.1457 204.764C29.4497 247.498 -16.878 315.21 6.65902 380.545C7.83934 385.353 9.19324 390.178 10.7034 394.969C16.7786 414.167 25.5615 432.774 36.0977 450.271C53.7157 479.553 76.5931 504.045 100.078 528.259C103.984 532.286 107.924 536.33 111.847 540.357C151.578 577.624 184.888 620.029 212.261 666.599C214.222 669.411 216.288 672.241 218.423 675.035L218.371 675.07Z" stroke="black" stroke-width="0.56" stroke-miterlimit="10"/>
<path d="M330.554 733.201C336.282 733.427 341.906 733.149 347.426 732.437C397.086 726.067 438.085 684.252 468.044 642.195C468.773 641.171 469.502 640.146 470.231 639.122C502.69 593.159 533.135 541.676 584.028 518.018C595.449 512.689 607.773 508.853 617.789 501.216C621.816 498.161 625.27 494.654 628.273 490.818C653.875 461.588 624.072 427.688 602.497 403.822C599.633 399.743 598.661 393.112 600.535 390.595C625.912 356.418 662.658 330.694 675.364 287.109C691.142 226.166 695.117 138.805 639.764 107.561C606.558 88.8144 585.608 61.476 566.219 29.4164C536.971 -15.8351 462.733 15.4435 420.484 41.1849C415.936 44.1184 411.51 47.0692 407.205 50.02C398.284 56.1299 389.83 62.2745 381.69 68.3497C377.611 71.3873 373.618 74.4249 369.661 77.4278C333.574 102.18 291.846 79.0594 250.587 89.6649C246.508 92.5289 237.673 93.8308 237.395 99.5067C241.318 125.977 248.417 158.731 211.966 160.328C206.099 161.404 200.024 162.342 193.706 163.123C182.285 164.529 170.846 166.664 159.563 169.562C135.037 175.846 111.24 185.688 89.959 199.192C85.7063 201.9 81.5405 204.746 77.5135 207.732C27.8532 252.237 -9.30961 320.852 14.4704 387.193C15.7202 391.671 17.1261 396.115 18.671 400.524C20.2158 404.933 21.8995 409.307 23.7221 413.646C28.7384 425.606 34.7268 437.253 41.4443 448.431C58.7672 477.279 81.2628 501.407 104.349 525.256C108.202 529.231 112.055 533.188 115.891 537.094C163.503 574.76 191.501 626.955 225.818 675.973C247.098 705.498 279.349 725.529 316.234 731.604C320.972 732.472 325.746 733.01 330.571 733.201H330.554Z" stroke="black" stroke-width="0.55" stroke-miterlimit="10"/>
<path d="M330.885 727.004C376.796 729.122 417.326 698.329 445.185 664.395C448.986 659.986 452.649 655.49 456.207 650.943C459.748 646.395 463.167 641.795 466.448 637.178C467.16 636.171 467.889 635.164 468.6 634.14C500.573 588.837 530.567 538.17 580.783 514.945C592.031 509.703 604.147 505.936 614.023 498.438C617.981 495.435 621.4 491.981 624.334 488.197C647.888 459.088 619.682 428.33 598.436 406.685C593.055 400.714 589.202 390.022 594.235 385.891C643.219 343.712 684.27 293.687 680.139 227.797C678.594 171.68 667.867 106.779 601.248 90.7234C575.68 85.4987 579.568 43.2154 558.045 27.2463C518.799 -1.87987 458.672 18.2898 419.947 45.524C415.469 48.4227 411.129 51.3214 406.876 54.2202C398.111 60.2433 389.797 66.3011 381.777 72.2895C377.768 75.2924 373.827 78.2779 369.835 81.1419C332.985 105.616 289.66 79.3541 247.793 93.4485C244.652 95.0454 240.573 97.8921 239.948 101.364C246.075 127.504 251.3 162.792 214.848 162.931C209.068 164.007 203.08 164.927 196.883 165.691C185.653 167.08 174.388 169.197 163.279 172.044C134.291 179.473 106.346 191.919 82.4787 209.624C78.5038 212.574 74.6331 215.664 70.8838 218.997C31.3951 260.725 0.793493 320.47 18.6025 379.659C19.9564 385.179 21.5359 390.681 23.3411 396.132C25.1463 401.582 27.1772 406.98 29.4163 412.327C34.3285 424.095 40.2302 435.568 46.8261 446.573C61.0247 470.249 78.7295 490.679 97.389 510.432C101.121 514.39 104.888 518.313 108.671 522.218C134.691 547.456 166.021 568.737 184.472 602.081C214.067 657.417 249.685 715.27 316.408 725.459C321.251 726.292 326.076 726.813 330.902 727.004H330.885Z" stroke="black" stroke-width="0.54" stroke-miterlimit="10"/>
<path d="M330.468 720.929C381.5 722.804 425.449 684.738 454.749 645.735C458.238 641.24 461.605 636.709 464.816 632.179C465.528 631.19 466.222 630.2 466.934 629.194C498.404 584.567 527.964 534.681 577.503 511.908C588.559 506.753 600.502 503.055 610.204 495.678C614.11 492.728 617.46 489.343 620.307 485.611C646.569 450.305 597.551 423.748 586.043 391.654C584.446 388.512 586.008 383.773 587.882 381.239C638.48 350.082 675.747 297.245 676.684 235.122C678.038 190.964 677.726 127.904 634.141 115.198C594.027 103.1 580.922 67.8461 558.722 39.5878C523.19 -2.48721 458.377 24.018 419.357 49.933C414.948 52.7797 410.678 55.6437 406.512 58.4904C397.885 64.4267 389.727 70.3977 381.829 76.2994C377.889 79.2502 374.001 82.1836 369.974 84.9261C359.421 93.9 346.177 95.8441 330.416 95.9309C300.769 93.5529 262.53 78.9377 249.095 102.336C237.205 120.995 258.243 164.094 217.73 165.639C212.054 166.698 206.152 167.601 200.042 168.364C188.986 169.736 177.911 171.819 166.976 174.613C138.44 181.921 110.928 194.175 87.4431 211.602C82.7392 215.091 78.2088 218.771 73.852 222.677C32.992 263.936 7.73659 321.772 24.5041 378.913C25.8233 384.363 27.3681 389.779 29.156 395.143C30.9265 400.506 32.9226 405.818 35.1097 411.077C39.9351 422.672 45.7326 433.954 52.207 444.786C63.368 463.428 76.7334 480.039 91.0188 495.887C94.5944 499.862 98.2222 503.767 101.885 507.655C158.662 549.609 193.013 606.507 228.943 666.547C247.082 697.67 279.957 714.212 315.627 719.471C320.644 720.287 325.591 720.807 330.485 720.981L330.468 720.929Z" stroke="black" stroke-width="0.53" stroke-miterlimit="10"/>
<path d="M329.132 715.027C394.067 716.433 441.089 661.01 474.555 610.898C477.644 606.437 480.716 601.942 483.841 597.464C508.714 561.672 535.168 526.679 574.257 508.835C585.14 503.767 596.874 500.139 606.438 492.884C610.274 489.967 613.572 486.652 616.349 482.972C634.002 456.658 608.972 432.201 593.403 410.834C586.755 403.925 577.225 392.938 582.537 383.148C591.285 366.068 613.659 365.009 624.941 349.821C642.785 325.764 653.373 298.287 666.166 270.462C688.314 222.104 682.239 142.987 634.21 123.061C596.926 107.161 579.742 74.7716 556.257 45.576C521.056 5.70541 458.117 29.6764 418.802 54.2549C414.462 57.0668 410.262 59.8788 406.165 62.6733C401.93 65.6068 397.799 68.5229 393.772 71.4563C389.745 74.3898 385.787 77.3059 381.917 80.2046C352.565 108.393 314.013 91.5565 278.083 92.3723C267.061 94.0039 252.237 92.8236 250.068 101.034C246.11 127.539 261.124 168.139 220.629 168.225C215.04 169.267 209.26 170.169 203.237 170.916C192.353 172.27 181.453 174.318 170.691 177.078C137 185.705 104.749 201.344 79.0424 224.36C74.755 228.196 70.6586 232.223 66.7358 236.58C38.408 269.855 17.1969 316.946 27.2644 361.937C28.0628 367.283 29.1217 372.682 30.4061 378.045C32.9924 388.772 36.516 399.36 40.8207 409.688C45.5594 421.092 51.2354 432.201 57.6056 442.859C68.5583 461.206 81.6981 477.557 95.7405 493.161C99.2467 497.067 102.805 500.903 106.381 504.652C134.951 533.9 175.725 550.407 192.006 591.944C214.988 648.269 249.339 705.168 313.857 713.482C319.082 714.315 324.168 714.819 329.184 715.01L329.132 715.027Z" stroke="black" stroke-width="0.52" stroke-miterlimit="10"/>
<path d="M326.82 709.317C405.728 711.313 451.067 636.987 491.18 579.742C494.305 575.385 497.481 571.098 500.745 566.862C520.22 541.503 542.091 518.868 570.991 505.746C581.701 500.782 593.244 497.206 602.651 490.089C606.418 487.225 609.647 483.962 612.198 480.317C617.996 470.302 619.836 459.887 614.732 448.24C604.526 424.963 574.185 410.296 579.41 384.728C583.697 360.427 619.037 363.083 629 339.077C634.919 325.799 635.787 308.771 644.24 297.384C687.826 249.234 682.358 166.646 637.072 127.157C626.622 117.437 604.561 120.7 595.656 106.241C561.601 43.667 496.145 4.90734 431.453 50.4192C426.87 53.1096 422.479 55.8521 418.226 58.612C413.973 61.3719 409.842 64.1491 405.798 66.8916C401.632 69.773 397.588 72.6717 393.613 75.5531C389.638 78.4344 385.767 81.3159 381.966 84.1625C347.528 112.525 306.13 91.6089 266.103 95.2887C259.49 96.2608 250.985 99.7844 249.77 106.728C248.294 127.227 266.433 158.349 239.112 167.202C234.252 168.66 228.993 169.857 223.49 170.881C217.988 171.906 212.294 172.791 206.393 173.537C195.701 174.874 184.973 176.905 174.385 179.612C141.232 188.1 109.502 203.479 84.2121 226.114C79.9942 229.88 75.9672 233.855 72.1312 238.021C43.1438 271.417 25.0918 316.912 33.2326 361.347C34.0137 366.676 35.0378 371.988 36.3049 377.264C38.8391 387.818 42.2933 398.232 46.5112 408.404C51.1631 419.617 56.7349 430.552 62.9837 441.036C71.055 454.575 80.324 467.004 90.2699 478.859C93.5853 482.816 96.97 486.687 100.407 490.489C118.459 513.835 145.016 525.69 166.852 543.863C174.767 551.709 182.7 559.555 187.473 568.98C212.051 628.447 240.466 698.625 311.025 707.72C316.406 708.588 321.7 709.126 326.855 709.352L326.82 709.317Z" stroke="black" stroke-width="0.52" stroke-miterlimit="10"/>
<path d="M323.506 703.832C409.809 708.466 454.453 621.851 498.489 562.731C501.683 558.565 504.946 554.486 508.296 550.511C525.046 530.637 543.966 513.401 567.711 502.691C572.971 500.244 578.456 498.161 583.75 495.8C589.061 493.439 594.217 490.818 598.834 487.312C635.858 454.124 580.192 420.676 570.558 386.03C568.649 380.684 573.335 374.348 577.744 373.689C624.957 357.685 623.777 311.652 648.529 280.947C683.938 238.507 672.552 169.198 638.947 132.486C628.168 120.562 606.766 128.234 597.862 113.775C562.261 55.9389 497.361 5.80988 430.62 54.8801C426.125 57.5358 421.803 60.2263 417.62 62.9514C413.419 65.6592 409.375 68.4017 405.4 71.0922C401.303 73.9388 397.328 76.7681 393.44 79.6148C389.535 82.4614 385.733 85.2907 381.984 88.1027C345.012 118.531 295.63 81.8886 257.269 104.471C242.81 113.375 261.522 133.146 258.45 150.504C256.28 158.714 251.906 167.254 241.543 169.805C236.891 171.35 231.684 172.496 226.286 173.503C220.888 174.509 215.281 175.394 209.466 176.123C198.947 177.443 188.394 179.439 177.997 182.112C139.949 191.85 103.827 210.822 77.4089 239.548C73.6423 243.662 70.0666 247.95 66.6992 252.463C42.4853 282.786 31.6541 323.82 39.0832 360.792C39.8469 366.034 40.8536 371.259 42.086 376.449C44.5682 386.828 47.9529 397.069 52.1014 407.067C56.6665 418.107 62.1342 428.834 68.2614 439.162C73.5382 448.032 79.353 456.433 85.5323 464.487C88.622 468.514 91.7984 472.471 95.0443 476.307C114.225 500.92 143.299 514.633 168.624 533.431C174.959 538.135 180.67 546.293 185.131 553.532C212.851 611.402 232.812 692.983 307.173 701.957C312.71 702.964 318.177 703.554 323.489 703.832H323.506Z" stroke="black" stroke-width="0.51" stroke-miterlimit="10"/>
<path d="M319.304 698.503C413.574 703.397 455.979 609.232 505.934 546.571C509.232 542.665 512.617 538.864 516.106 535.184C530.061 520.5 545.753 508.002 564.464 499.601C569.637 497.206 575.018 495.157 580.243 492.831C585.467 490.523 590.518 487.937 595.066 484.5C625.494 460.147 590.952 424.702 574.115 402.398C567.137 393.285 560.108 376.292 574.896 369.609C590.622 361.642 607.945 356.834 617.006 341.958C633.6 316.963 630.91 283.55 653.162 258.85C684.527 227.155 670.936 158.175 633.322 140.071C592.237 121.36 574.063 82.3569 542.09 56.6675C511.055 29.711 461.585 38.1469 429.856 59.3754C425.429 61.979 421.177 64.6347 417.063 67.3078C412.949 69.9809 408.957 72.6713 405.069 75.3097C401.059 78.1043 397.154 80.8989 393.318 83.6934C389.499 86.488 385.75 89.2653 382.07 92.0425C352.267 114.069 316.25 99.1244 281.239 98.6731C239.286 96.9894 266.607 136.895 258.848 160.588C256.348 166.594 250.065 169.77 244.423 172.634C239.633 173.988 234.512 175.134 229.201 176.123C223.889 177.113 218.387 177.98 212.676 178.709C202.331 180.011 191.969 181.973 181.727 184.611C138.958 195.564 98.6883 218.354 72.2873 253.764C68.9893 258.19 65.8996 262.807 63.0703 267.633C48.2469 290.944 42.0849 317.779 43.6297 344.718C43.8554 349.908 44.3414 355.081 45.0878 360.253C47.3096 375.736 51.7531 391.011 57.8283 405.748C62.3066 416.596 67.6701 427.167 73.6932 437.304C76.2795 441.661 79.0047 445.914 81.834 450.062C84.6633 454.211 87.5967 458.255 90.6343 462.195C97.4212 470.718 105.666 480.768 113.581 488.613C139.219 509.616 175.201 516.681 190.198 549.4C213.509 607.93 232.499 682.881 302.624 696.177C308.3 697.374 313.872 698.138 319.322 698.52L319.304 698.503Z" stroke="black" stroke-width="0.5" stroke-miterlimit="10"/>
<path d="M314.358 693.278C408.506 699.631 455.649 607.011 503.539 542.631C506.802 538.778 510.135 535.046 513.554 531.435C527.302 517.028 542.75 504.739 561.184 496.529C566.27 494.186 571.564 492.155 576.684 489.881C581.822 487.607 586.787 485.073 591.265 481.706C621.641 449.438 571.98 418.472 563.944 386.985C556.549 359.907 602.304 364.402 612.597 342.601C629.747 306.254 636.204 273.743 658.109 238.941C673.436 213.009 664.653 161.335 633.045 145.73C589.425 125.144 569.342 80.7778 530.739 56.0604C500.675 35.7172 460.371 45.073 429.057 63.8366C424.718 66.3882 420.535 68.9919 416.49 71.6129C412.446 74.2339 408.523 76.8723 404.704 79.4759C400.764 82.2358 396.928 84.9783 393.162 87.7382C389.412 90.4807 385.732 93.2232 382.087 95.931C372.072 103.204 362.3 105.79 351.277 107.404C321.335 110.702 279.278 85.3775 261.747 111.64C251.731 127.765 275.251 164.858 247.062 175.29C242.306 176.61 237.272 177.72 232.065 178.71C226.84 179.699 221.442 180.55 215.835 181.261C205.681 182.563 195.492 184.49 185.425 187.059C138.125 199.175 93.9324 225.992 68.7638 268.64C65.9692 273.379 63.4003 278.308 61.109 283.446C58.6616 292.732 53.3502 302.522 51.6665 313.753C50.7465 318.838 50.1216 323.959 49.7745 329.062C48.0908 354.613 53.5584 380.215 63.5044 404.377C67.8959 415.035 73.1553 425.415 79.0569 435.395C81.5911 439.683 84.2642 443.848 87.0241 447.893C98.0115 467.212 114.171 485.108 135.66 493.196C201.984 514.928 201.116 592.829 233.21 642.16C247.826 664.794 270.009 685.172 297.347 690.189C303.075 691.664 308.786 692.653 314.34 693.244L314.358 693.278Z" stroke="black" stroke-width="0.49" stroke-miterlimit="10"/>
<path d="M308.84 688.001C403.751 698.086 454.037 603.869 501.111 538.725C504.339 534.924 507.62 531.244 511.005 527.703C524.544 513.557 539.749 501.51 557.905 493.474C562.904 491.165 568.094 489.186 573.128 486.965C578.161 484.743 583.056 482.261 587.413 478.945C592.412 472.957 597.099 466.622 598.001 457.474C597.515 423.731 537.44 390.942 566.688 375.337C615.411 346.715 612.356 303.216 634.209 260.534C640.458 249.46 658.111 246.856 659.291 232.032C662.936 203.323 658.024 170.239 636.188 152.066C623.205 140.471 603.313 135.524 590.937 120.457C550.632 68.9396 488.926 25.1114 428.226 68.3841C423.956 70.8836 419.842 73.4352 415.867 76.0215C411.892 78.6078 408.039 81.1941 404.29 83.7457C400.419 86.4535 396.652 89.1613 392.972 91.8691C389.293 94.5769 385.682 97.2673 382.054 99.8884C376.431 102.614 371.397 106.727 363.846 108.984C329.825 115.146 294.693 91.0533 267.042 109.782C253.521 117.42 268.136 140.054 266.018 156.145C263.849 164.355 261.071 176.037 249.633 178.05C244.929 179.317 239.999 180.428 234.879 181.4C229.758 182.372 224.447 183.205 218.944 183.917C208.964 185.201 198.948 187.093 189.054 189.628C137.398 202.854 89.5254 233.924 66.8736 284.296C49.2208 323.525 53.5602 365.096 69.1301 403.092C71.2824 408.334 73.6431 413.507 76.1947 418.593C78.7462 423.679 81.4714 428.678 84.3701 433.538C101.415 467.871 137.45 482.816 168.433 501.892C180.775 509.078 188.395 522.6 194.765 535.184C218.701 590.243 227.259 663.353 291.621 683.974C297.332 685.849 303.112 687.134 308.77 687.984L308.84 688.001Z" stroke="black" stroke-width="0.48" stroke-miterlimit="10"/>
<path d="M302.988 682.551C406.909 696.489 453.028 589.358 508.486 523.954C511.819 520.482 515.255 517.132 518.814 513.956C529.489 504.409 541.257 496.286 554.675 490.401C559.587 488.145 564.673 486.201 569.637 484.014C574.584 481.827 579.392 479.397 583.61 476.116C608.709 445.74 565.992 415.989 553.859 387.366C544.92 365.027 578.941 358.865 594.667 350.898C601.905 346.454 607.859 341.056 610.028 332.846C620.894 299.675 614.073 261.245 647.365 234.914C668.732 219.361 656.842 177.165 636.273 159.929C604.3 134.239 572.64 110.737 543.167 79.0417C512.096 44.2049 462.297 50.4363 427.495 72.845C423.294 75.2751 419.267 77.8093 415.362 80.3436C411.456 82.8778 407.69 85.4293 403.993 87.9289C400.209 90.6019 396.512 93.2577 392.884 95.9134C389.273 98.5691 385.698 101.207 382.105 103.724C350.097 122.262 311.823 99.7494 276.535 104.974C273.393 106.571 267.093 109.747 265.548 114.486C260.931 136.582 279.382 169.909 252.304 180.706C247.669 181.955 242.827 183.032 237.793 184.004C232.759 184.958 227.552 185.791 222.136 186.486C212.329 187.753 202.505 189.627 192.784 192.11C142.03 205.093 95.0085 235.608 72.7386 285.077C59.7204 313.961 58.8351 344.163 65.6567 373.185C66.7849 378.028 68.1388 382.836 69.6837 387.592C82.3374 422.22 98.2891 461.553 136.198 473.964C202.192 493.491 207 571.67 232.811 624.194C243.018 647.471 260.792 668.509 285.804 677.361C291.55 679.6 297.295 681.319 302.988 682.516V682.551Z" stroke="black" stroke-width="0.47" stroke-miterlimit="10"/>
<path d="M297.053 676.823C401.234 696.212 451.78 588.421 505.936 520.222C509.216 516.803 512.601 513.522 516.09 510.398C526.591 501.025 538.186 493.075 551.396 487.329C556.221 485.108 561.22 483.216 566.08 481.063C570.94 478.911 575.662 476.533 579.706 473.304C602.688 443.241 557.766 413.837 549.104 385.822C542.37 363.153 575.453 358.258 592.117 349.023C597.133 344.892 603.434 341.716 605.916 335.71C615.48 293.722 617.476 253.99 647.262 219.153C658.857 206.17 648.616 174.995 630.894 161.855C599.251 138.371 570.42 111.084 542.526 82.5309C510.831 51.1655 460.719 55.1925 426.681 77.3583C422.549 79.7363 418.592 82.2184 414.756 84.7006C410.92 87.2001 407.223 89.6996 403.612 92.147C399.898 94.768 396.27 97.389 392.729 100.01C359.281 131.063 315.296 100.375 275.929 108.463C272.787 110.06 268.691 112.907 268.083 116.378C263.466 138.475 280.321 168.66 254.909 183.379C250.361 184.629 245.605 185.688 240.658 186.642C235.729 187.58 230.608 188.413 225.297 189.09C215.681 190.339 206.012 192.179 196.483 194.627C146.632 207.385 100.46 237.344 78.5723 285.894C72.1673 300.075 68.7478 314.568 67.7585 329.097C67.4287 333.94 67.3766 338.782 67.5675 343.608C72.7401 395.49 97.9261 451.486 151.961 473.912C199.659 491.651 214.153 551.483 228.282 601.231C235.052 631.78 256.003 659.101 286.014 672.848C289.659 674.445 293.356 675.747 297.053 676.823Z" stroke="black" stroke-width="0.46" stroke-miterlimit="10"/>
<path d="M291.359 670.696C396.807 696.854 450.164 585.279 503.331 516.594C506.611 513.123 509.944 509.912 513.381 506.839C523.709 497.657 535.13 489.881 548.131 484.257C552.852 482.087 557.782 480.23 562.538 478.13C567.311 476.029 571.911 473.686 575.782 470.475C596.351 438.554 554.293 413.229 544.364 384.259C540.858 375.771 549.641 366.572 559.066 361.798C573.525 352.894 594.65 350.898 601.176 334.148C614.542 294.971 617.475 253.972 635.579 216.358C665.851 154.409 564.725 110.772 514.093 73.1922C488.768 54.3939 453.202 65.2945 425.881 81.8363C421.819 84.1623 417.931 86.5924 414.164 89.0398C410.398 91.4872 406.77 93.952 403.229 96.3474C398.369 99.7842 393.682 103.221 389.1 106.623C358.932 128.824 321.926 107.248 287.575 111.223C252.894 112.976 281.812 156.023 268.047 177.217C265.218 181.018 262.406 184.82 257.511 185.913C253.016 187.267 248.364 188.326 243.521 189.246C238.678 190.183 233.662 190.981 228.455 191.658C219.012 192.891 209.535 194.696 200.162 197.091C156.108 208.357 114.987 233.3 91.5198 272.91C88.9162 277.301 86.5208 281.884 84.3685 286.657C54.8257 350.759 87.7359 436.037 157.896 468.479C212.59 495.314 219.238 563.078 241.612 622.875C246.75 642.403 262.267 655.872 280.701 665.731C284.19 667.641 287.766 669.255 291.359 670.661V670.696Z" stroke="black" stroke-width="0.46" stroke-miterlimit="10"/>
<path d="M286.272 664.204C397.483 701.263 451.361 570.455 510.689 503.298C514.074 500.295 517.581 497.449 521.226 494.776C528.516 489.447 536.344 484.847 544.884 481.185C549.519 479.067 554.344 477.227 559.031 475.179C570.678 470.527 581.682 460.998 577.187 445.896C571.06 419.756 546.724 407.588 538.392 381.76C536.466 376.414 543.704 371.953 547.453 366.902C564.412 351.991 594.666 350.898 600.22 327.534C607.91 288.08 614.315 247.689 630.215 210.405C655.47 152.569 560.35 111.431 511.297 76.9935C487.239 59.1498 451.673 70.0331 425.116 86.332C421.124 88.6058 417.305 91.0012 413.608 93.3965C409.928 95.7919 406.352 98.222 402.881 100.565C398.125 103.95 393.525 107.317 389.012 110.633C356.449 134.847 311.493 97.545 278.478 118.201C261.815 127.435 279.294 154.148 273.08 173.086C270.581 179.091 264.627 184.472 260.149 188.326C255.723 189.923 251.14 190.964 246.401 191.884C241.663 192.804 236.733 193.602 231.63 194.262C222.361 195.477 213.075 197.265 203.875 199.608C175.044 206.985 147.515 220.316 125.523 239.895C121.86 243.159 118.354 246.595 115.021 250.206C63.1217 299.953 63.6424 402.433 125.592 432.705C178.064 459.869 202.608 511.456 225.555 559.902C240.864 594.825 241.385 636.449 276.239 658.389C279.485 660.541 282.853 662.468 286.272 664.169V664.204Z" stroke="black" stroke-width="0.45" stroke-miterlimit="10"/>
<path d="M282.125 657.521C334.944 682.36 394.377 649.884 428.849 608.729C458.305 571.688 478.891 528.068 513.069 495.453C517.391 491.981 521.904 488.753 526.642 485.854C531.381 482.955 536.363 480.351 541.605 478.112C546.153 476.029 550.874 474.241 555.474 472.228C564.656 468.027 573.769 461.032 573.404 450.947C571.686 424.147 547.02 409.775 538.411 389.64C525.011 360.063 577.344 355.706 593.313 334.182C597.063 329.114 597.028 321.233 597.722 314.013C597.965 309.205 598.226 304.414 598.521 299.606C598.816 294.798 599.146 290.007 599.527 285.216C600.048 278.777 600.569 272.354 601.159 266.001C600.1 243.002 622.405 226.183 626.727 209.762C641.568 150.087 557.192 112.993 509.736 81.6975C492.014 68.5403 463.009 70.5885 441.659 82.3223C435.653 84.8045 429.856 87.6338 424.319 90.7755C416.473 95.2365 409.339 100.149 402.518 104.748C397.866 108.064 393.353 111.379 388.874 114.556C364.608 129.084 334.909 118.843 308.404 114.868C297.052 114.295 282.836 109.643 277.855 121.638C266.295 142.501 287.888 174.249 262.754 190.582C258.432 192.44 253.901 193.585 249.249 194.488C244.597 195.39 239.772 196.171 234.756 196.831C225.678 198.029 216.547 199.782 207.539 202.09C183.967 208.113 161.281 218.216 141.875 232.518C138.004 235.382 134.255 238.403 130.662 241.614C74.6831 286.952 63.227 392.331 130.245 426.352C186.519 456.346 210.16 517.08 233.766 569.934C246.837 597.307 247.323 631.033 272.943 651.099C275.859 653.39 278.914 655.525 282.107 657.469L282.125 657.521Z" stroke="black" stroke-width="0.44" stroke-miterlimit="10"/>
<path d="M279.381 650.96C333.676 681.423 399.062 643.566 431.955 599.251C458.27 563.807 478.231 523.659 510.256 492.12C514.526 488.596 518.969 485.437 523.639 482.608C528.308 479.761 533.203 477.227 538.358 475.057C542.819 473.026 547.453 471.273 551.949 469.295C567.484 464.226 571.824 447.806 566.391 433.972C559.048 414.774 538.497 405.418 532.734 389.362C523.795 367.023 559.048 353.918 578.853 343.087C589.233 337.046 594.215 325.035 593.278 314.36C593.503 309.656 593.746 304.952 594.041 300.248C594.336 295.544 594.666 290.84 595.048 286.154C595.551 279.853 596.072 273.535 596.628 267.251C597.01 252.497 597.27 238.941 605.723 227.554C611.972 216.48 628.965 209.467 624.799 196.553C611.295 143.335 555.629 109.869 507.878 84.2664C488.281 73.6435 462.748 76.2992 440.547 87.0783C434.68 89.491 428.987 92.2335 423.554 95.3058C415.847 99.6626 408.852 104.505 402.187 109.001C397.622 112.264 393.213 115.51 388.769 118.496C358.064 137.988 322.619 111.674 288.598 117.836C284.189 118.496 281.048 120.075 279.156 122.609C272.664 147.24 289.275 190.981 252.147 197.143C247.582 198.029 242.861 198.81 237.948 199.452C229.044 200.632 220.105 202.351 211.252 204.625C192.749 209.363 174.819 216.636 158.641 226.53C154.597 229.012 150.657 231.65 146.855 234.445C89.4535 272.389 67.2183 365.843 120.715 407.501C185.615 457.63 232.03 535.271 252.946 615.568C255.844 627.527 263.759 635.373 271.379 644.295C273.862 646.603 276.552 648.825 279.381 650.925V650.96Z" stroke="black" stroke-width="0.43" stroke-miterlimit="10"/>
<path d="M278.481 644.902C385.786 698.486 446.59 561.013 503.002 492.936C507.706 486.6 515.257 484.361 520.62 479.345C525.203 476.568 530.028 474.103 535.097 471.985C539.471 469.989 544.019 468.288 548.41 466.361C568.111 460.772 564.848 438.711 558.148 423.939C550.51 410.418 531.556 404.203 528.327 390.04C521.87 361.694 559.05 353.936 578.196 338.713C585.104 332.048 589.478 323.525 588.819 314.742C589.044 310.142 589.287 305.525 589.565 300.925C589.843 296.325 590.173 291.726 590.537 287.126C591.041 280.947 591.561 274.767 592.082 268.588C588.749 242.499 610.065 219.049 613.415 196.015C621.382 150.885 556.603 124.415 522.096 96.8336C500.243 78.6601 466.517 79.1461 439.387 91.8346C433.641 94.1605 428.069 96.851 422.723 99.8365C415.155 104.089 408.316 108.845 401.772 113.254C397.312 116.448 392.972 119.607 388.563 122.401C356.747 137.103 322.899 113.948 287.941 121.377C284.799 122.974 281.657 124.554 281.032 128.043C276.745 152.343 288.583 186.66 259.735 198.272C253.59 200.199 247.48 201.292 241.075 202.143C232.344 203.306 223.578 205.007 214.917 207.228C196.778 211.863 179.195 218.997 163.33 228.7C159.372 231.13 155.519 233.716 151.822 236.459C107.681 266.418 88.7267 321.06 104.453 373.949C113.114 401.964 141.199 409.081 157.706 429.181C209.397 489.152 248.521 555.476 266.626 631.849C269.628 636.345 273.69 640.841 278.463 644.989L278.481 644.902Z" stroke="black" stroke-width="0.42" stroke-miterlimit="10"/>
<path d="M279.73 639.695C323.229 671.702 383.304 643.635 415.294 608.486C452.908 565.734 473.147 512.029 517.565 476.168C522.096 473.408 526.834 470.995 531.816 468.93C536.103 466.986 540.547 465.32 544.799 463.41C554.537 460.546 559.849 450.739 559.467 440.654C558.078 416.058 529.976 408.959 524.838 389.432C516.802 357.945 565.646 352.963 580.973 327.031C583.785 323.23 584.41 319.758 584.271 315.002C584.566 310.558 584.809 306.045 585.087 301.55C585.364 297.037 585.677 292.541 586.041 288.028C586.545 281.97 587.065 275.93 587.569 269.872C588.089 263.814 588.593 257.774 589.114 251.733C585.191 226.096 614.734 204.815 606.107 184.68C580.591 126.48 506.179 65.3638 438.293 96.5208C432.651 98.7773 427.201 101.381 421.959 104.297C414.53 108.446 407.83 113.132 401.442 117.437C397.086 120.579 392.798 123.581 388.389 126.133C379.433 130.334 371.552 130.368 361.468 130.733C335.622 131.184 299.553 108.341 287.055 130.472C274.887 154.808 286.795 204.885 244.251 204.677C239.981 205.249 235.694 205.961 231.424 206.794C227.154 207.627 222.866 208.582 218.631 209.676C201.968 213.928 185.773 220.351 171.019 228.96C166.107 231.824 161.351 234.948 156.907 238.298C111.829 271.382 81.9395 343.434 123.129 385.787C190.633 453.551 242.776 539.367 270.843 627.874C272.978 631.849 275.946 635.876 279.73 639.712V639.695Z" stroke="black" stroke-width="0.41" stroke-miterlimit="10"/>
<path d="M283.271 635.39C376.273 687.498 443.152 568.303 485.054 501.233C499.756 478.772 524.317 469.503 545.997 456.155C569.568 440.272 540.737 412.986 524.89 397.295C502.394 374.712 549.885 353.033 567.78 336.855C576.563 327.673 582.482 314.395 580.608 302.175C580.868 297.766 581.181 293.357 581.545 288.948C582.552 277.093 583.593 265.255 584.583 253.417C585.086 247.758 585.555 242.03 585.971 236.302C586.7 213.46 609.283 190.964 594.997 170.534C558.494 121.846 500.537 72.9491 437.164 101.19C431.644 103.377 426.298 105.929 421.16 108.775C417.515 110.806 414.043 112.959 410.728 115.146C407.395 117.333 404.202 119.537 401.077 121.637C393.613 127.088 382.921 130.924 373.149 133.493C343.536 138.995 294.813 106.779 287.419 140.54C282.194 166.108 282.385 205.527 247.41 207.245C243.226 207.818 239.026 208.513 234.843 209.328C230.659 210.144 226.476 211.082 222.31 212.158C211.427 214.935 200.752 218.65 190.563 223.319C185.46 225.662 180.496 228.231 175.67 231.043C131.304 258.329 99.7305 311.461 118.928 364.957C124.691 381.013 141.424 387.54 150.328 401.999C198.93 471.447 259.196 543.655 277.612 625.288C278.601 628.516 280.511 631.971 283.288 635.355L283.271 635.39Z" stroke="black" stroke-width="0.41" stroke-miterlimit="10"/>
<path d="M288.949 631.728C383.513 683.054 442.46 555.996 488.163 491.755C501.32 474.033 522.392 464.156 543.464 454.263C551.64 448.552 551.258 438.467 548.689 428.695C542.596 410.434 519.893 409.289 516.681 395.125C509.252 360.167 558.392 349.509 573.389 321.372C575.871 315.366 574.899 308.753 576.149 302.799C576.409 298.477 576.704 294.173 577.069 289.868C578.058 278.273 579.082 266.695 580.089 255.101C580.575 249.563 581.026 243.957 581.391 238.298C581.078 221.062 591.076 204.937 589.74 188.221C583.456 130.542 509.461 87.408 452.701 100.461C447.025 101.936 441.453 103.742 436.055 105.877C430.657 108.012 425.415 110.494 420.381 113.271C416.805 115.232 413.421 117.367 410.157 119.502C406.894 121.637 403.77 123.807 400.715 125.855C371.641 146.129 338.765 129.587 306.914 127.539C300.301 128.511 292.42 128.563 291.188 135.506C282.804 162.671 289.018 204.572 250.744 209.589C246.492 210.422 242.378 211.116 238.282 211.915C234.185 212.713 230.089 213.633 226.01 214.675C215.352 217.4 204.903 221.027 194.922 225.61C189.923 227.901 185.063 230.418 180.359 233.16C136.999 258.624 104.193 318.699 132.174 363.013C184.317 448.83 249.703 532.685 285.876 622.91C286.171 625.774 287.178 628.759 288.966 631.728H288.949Z" stroke="black" stroke-width="0.4" stroke-miterlimit="10"/>
<path d="M296.308 628.065C329.149 658.424 382.281 629.141 408.63 601.577C455.027 549.626 480.248 483.927 540.566 442.303C559.104 430.535 526.228 413.993 516.387 400.801C497.31 370.946 549.227 348.606 566.134 325.816C569.57 318.543 570.786 311.6 571.532 303.355C571.896 299.206 572.192 294.989 572.556 290.788C573.545 279.453 574.552 268.119 575.559 256.784C576.045 251.369 576.496 245.866 576.861 240.347C577.225 234.827 577.503 229.255 577.746 223.805C582.537 200.563 589.966 174.665 570.004 153.957C539.247 121.325 496.529 91.5738 451.208 105.391C445.671 106.762 440.221 108.498 434.944 110.58C429.668 112.663 424.53 115.076 419.6 117.767C416.094 119.693 412.779 121.759 409.585 123.859C406.391 125.959 403.336 128.077 400.35 130.073C370.408 153.072 334.634 124.571 298.739 133.25C295.597 134.847 291.518 137.693 290.893 141.165C291.379 174.908 281.155 212.47 241.719 214.449C237.692 215.247 233.682 216.15 229.69 217.174C224.465 218.511 219.31 220.055 214.224 221.843C209.138 223.631 204.139 225.627 199.262 227.866C155.52 246.856 117.004 298.755 136.149 344.371C176.645 435.291 230.019 514.164 289.07 593.332C293.514 600.553 296.1 610.326 294.989 619.768C294.955 622.563 295.302 625.357 296.291 628.048L296.308 628.065Z" stroke="black" stroke-width="0.39" stroke-miterlimit="10"/>
<path d="M304.604 623.535C341.107 655.525 393.875 616.158 418.627 585.452C457.473 535.757 483.996 478.859 536.763 439.491C554.034 426.786 518.347 414.045 511.976 401.461C495.105 371.276 543.88 350.533 560.474 325.538C562.973 319.532 566.393 312.26 566.913 303.911C567.399 299.918 567.712 295.822 568.076 291.708C569.048 280.617 570.055 269.542 571.062 258.486C571.548 253.191 571.982 247.811 572.346 242.412C572.711 237.014 572.989 231.564 573.145 226.131C573.11 205.336 581.199 183.848 570.368 164.042C545.251 123.807 496.25 97.25 449.732 110.268C444.299 111.553 438.987 113.236 433.815 115.267C428.642 117.298 423.626 119.641 418.8 122.262C415.363 124.137 412.118 126.168 408.993 128.216C405.886 130.264 402.901 132.347 399.967 134.274C374.486 150.226 343.19 136.826 314.481 133.18C308.805 132.903 299.987 134.205 298.425 138.943C283.757 169.284 288.409 215.925 245.223 216.897C241.196 217.799 237.256 218.702 233.351 219.708C228.248 221.01 223.196 222.538 218.215 224.274C170.88 236.702 133.926 283.88 145.191 329.531C168.745 435.36 236.006 516.681 302.643 601.473C304.24 604.615 303.944 610.291 303.962 615.064C303.962 617.998 304.031 620.862 304.569 623.518L304.604 623.535Z" stroke="black" stroke-width="0.38" stroke-miterlimit="10"/>
<path d="M312.92 617.529C315.141 632.318 333.107 631.919 344.146 630.287C373.758 624.785 397 606.681 416.111 583.577C444.63 547.803 463.012 504.513 494.984 469.347C506.579 456.363 527.704 454.367 535.185 436.35C541.729 419.599 519.632 414.982 508.228 406.529C497.154 400.28 503.09 387.002 508.402 377.212C526.541 347.478 565.873 331.509 563.599 292.663C564.085 287.247 564.571 281.832 565.075 276.433C565.578 271.018 566.064 265.619 566.568 260.204C567.522 249.841 568.355 239.201 568.65 228.578C568.807 223.267 568.824 217.973 568.772 212.835C568.008 193.724 572.018 175.099 559.329 157.828C536.782 127.365 498.855 107.057 461.744 112.681C457.231 113.288 452.736 114.104 448.292 115.146C437.687 117.628 427.498 121.707 418.055 126.793C414.688 128.615 411.511 130.594 408.474 132.607C405.436 134.621 402.52 136.652 399.639 138.457C372.665 152.795 343.903 141.269 317.398 137.294C310.455 136.062 305.109 137.988 302.279 141.79C285.043 162.376 298.808 202.038 267.304 210.075C210.006 226.443 146.772 256.09 153.09 321.65C165.935 431.316 238.264 516.403 310.264 599.286C311.861 602.428 311.236 605.899 312.208 608.52C312.33 611.732 312.503 614.787 312.937 617.564L312.92 617.529Z" stroke="black" stroke-width="0.37" stroke-miterlimit="10"/>
<path d="M320.504 610.326C323.611 620.914 335.605 625.913 346.645 624.264C425.397 608.104 440.394 519.111 491.529 468.704C503.454 457.925 519.51 452.162 529.838 438.242C532.65 434.44 533.882 427.497 530.411 426.89C509.217 413.125 488.96 398.093 507.742 372.768C525.273 346.506 558.599 328.055 559.086 293.548C559.572 288.254 560.058 282.977 560.561 277.7C561.047 272.424 561.55 267.129 562.036 261.853C562.991 251.733 563.807 241.353 564.119 230.973C564.275 225.783 564.293 220.611 564.137 215.456C572.868 158.019 515.848 107.873 459.938 117.628C455.53 118.148 451.138 118.912 446.781 119.919C436.419 122.314 426.455 126.272 417.221 131.219C413.923 132.989 410.816 134.933 407.848 136.895C404.88 138.856 402.033 140.818 399.169 142.467C371.987 156.197 343.85 141.199 314.533 141.043C308.857 140.748 302.244 141.738 301.949 147.414C294.589 189.072 271.104 220.715 226.373 230.73C153.298 247.185 149.652 336.751 175.793 391.48C210.213 464.139 248.105 537.423 312.068 588.802C315.87 591.614 317.779 596.978 318.508 601.265C319.359 604.337 319.879 607.444 320.487 610.308L320.504 610.326Z" stroke="black" stroke-width="0.36" stroke-miterlimit="10"/>
<path d="M327.099 602.602C328.627 616.8 345.655 617.668 355.739 617.304C373.392 614.7 388.788 604.528 399.116 590.59C443.309 538.968 478.649 480.768 524.109 430.101C529.75 422.498 506.717 419.148 498.454 409.098C491.476 399.985 496.458 387.974 500.832 379.451C518.971 349.717 549.764 329.374 554.537 294.468C555.075 289.33 555.561 284.175 556.047 279.02C556.533 273.864 557.036 268.709 557.522 263.554C558.928 248.73 560.074 233.317 559.64 218.268C559.501 213.251 559.171 208.27 558.703 203.444C558.981 155.589 515.621 121.447 471.064 121.794C466.777 121.828 462.454 122.089 458.15 122.575C453.845 123.078 449.558 123.807 445.305 124.779C435.186 127.088 425.465 130.941 416.439 135.732C413.211 137.45 410.173 139.342 407.274 141.269C377.089 167.861 336.542 129.917 307.016 151.198C287.524 164.233 298.147 205.475 271.069 212.87C190.442 231.564 158.626 298.252 174.126 372.595C190.251 443.449 242.238 497.744 281.952 554.521C284.625 557.593 287.437 560.596 290.388 563.443C293.339 566.307 296.428 569.032 299.622 571.566C302.833 574.118 306.149 576.478 309.568 578.613C314.567 582.814 320.885 587.518 323.784 593.784C325.155 596.717 326.127 599.755 327.082 602.602H327.099Z" stroke="black" stroke-width="0.36" stroke-miterlimit="10"/>
<path d="M332.551 594.617C337.394 607.601 350.673 613.537 363.569 609.371C430.605 582.554 442.824 505.225 493.353 458.307C503.403 450.062 514.095 446.226 520.344 435.152C520.014 432.948 520.309 427.272 518.105 427.602C494.099 417.638 485.472 397.503 500.174 375.042C517.705 348.78 546.294 328.767 549.904 295.371C550.564 290.389 551.05 285.373 551.536 280.339C552.022 275.305 552.508 270.289 553.011 265.255C554.417 250.796 555.563 235.764 555.146 221.08C555.007 216.185 554.712 211.325 554.174 206.534C553.653 165.396 519.111 129.935 477.297 127.14C471.777 126.706 466.171 126.689 460.564 127.123C454.958 127.539 449.351 128.39 443.831 129.64C433.955 131.861 424.46 135.611 415.66 140.245C412.501 141.911 409.532 143.769 406.703 145.643C379.313 167.566 345.448 144.394 312.364 149.288C307.955 149.948 302.922 154.062 301.377 158.801C298.513 215.578 241.788 220.594 209.138 251.334C176.835 284.297 170.812 342.653 183.015 387.054C198.446 445.619 241.25 491.131 275.896 539.177C278.586 542.561 281.311 545.877 284.123 549.123C291.899 558.097 300.977 566.376 311.028 572.625C314.378 574.708 317.728 576.652 320.835 578.665C323.508 581.061 325.903 583.56 328.021 586.095C329.704 589.011 331.18 591.892 332.534 594.635L332.551 594.617Z" stroke="black" stroke-width="0.35" stroke-miterlimit="10"/>
<path d="M336.836 586.563C342.373 595.606 350.305 603.452 362.595 602.758C378.043 600.466 390.28 591.892 400.018 581.442C440.461 534.889 464.762 478.32 513.745 436.141C515.62 433.607 514.978 429.198 512.443 427.324C452.698 396.722 532.509 342.08 543.67 303.251C544.902 296.308 546.117 289.365 547.072 281.658C547.558 276.763 548.044 271.868 548.53 266.973C550.387 248.175 551.793 228.387 549.78 209.728C549.276 205.058 548.565 200.476 547.575 195.98C543.323 171.471 526.833 151.371 505.691 140.158C500.935 137.919 495.971 136.148 490.833 134.829C475.437 130.854 458.565 130.906 442.405 134.499C432.772 136.634 423.52 140.262 414.911 144.758C411.821 146.372 408.94 148.177 406.162 150C384.361 163.452 356.589 158.557 331.976 152.048C320.624 151.475 306.13 152.499 303.665 166.386C297.607 216.862 248.485 227.519 213.596 250.709C209.517 253.573 206.688 257.357 205.143 262.096C197.749 295.874 188.15 329.982 184.227 364.367C177.319 431.871 247.235 477.869 278.392 534.091C280.996 537.354 283.634 540.565 286.377 543.742C293.945 552.49 302.78 560.579 312.535 566.671C315.798 568.702 319.148 570.524 322.481 572.243C325.553 574.308 328.383 576.513 330.951 578.769C333.139 581.408 335.083 584.063 336.87 586.615L336.836 586.563Z" stroke="black" stroke-width="0.34" stroke-miterlimit="10"/>
<path d="M339.979 578.561C350.602 597.759 373.305 598.904 389.309 585.279C437.633 538.691 467.94 484.604 504.252 433.034C508.018 427.966 477.052 416.77 486.078 394.032C501.648 354.543 540.286 326.285 542.526 282.96C543.012 278.187 543.498 273.413 543.966 268.657C546.275 245.762 547.872 221.357 543.15 199.487C542.213 195.113 541.015 190.843 539.523 186.711C533.517 174.04 528.084 160.189 515.517 152.986C511.455 149.861 507.081 147.223 502.481 145.036C484.082 136.27 461.899 134.743 440.879 139.342C436.192 140.366 431.593 141.755 427.114 143.439C422.636 145.123 418.279 147.084 414.079 149.254C384.362 171.333 351.817 156.995 316.824 156.544C314.619 156.874 310.54 159.72 309.603 160.987C297.227 206.777 260.133 230.297 220.506 251.942C216.427 254.806 214.865 259.544 213.32 264.283C212.868 299.293 197.871 327.43 190.147 358.987C173.102 418.975 242.706 462.768 268.535 512.793C271.728 517.167 274.957 521.489 278.255 525.759C281.57 530.029 284.972 534.23 288.513 538.343C295.873 546.866 304.448 554.746 313.942 560.7C317.101 562.679 320.365 564.449 323.697 566.012C326.891 567.817 329.946 569.709 332.827 571.636C335.414 573.961 337.774 576.322 339.979 578.613V578.561Z" stroke="black" stroke-width="0.33" stroke-miterlimit="10"/>
<path d="M342.114 570.768C357.823 593.316 388.373 586.546 403.404 566.29C435.013 521.038 466.968 477.991 501.111 434.632C478.042 423.401 477.921 399.743 489.481 378.879C507.29 346.941 534.906 320.314 538.048 284.262C538.534 279.61 539.003 274.976 539.489 270.341C543.169 234.671 545.026 195.252 522.843 168.174C503.315 144.342 470.162 137.537 439.422 144.151C434.857 145.14 430.378 146.477 426.004 148.091C421.647 149.705 417.395 151.615 413.298 153.697C385.352 177.911 349.613 157.273 317.484 160.901C313.075 161.561 308.041 165.674 306.496 170.413C298.2 213.338 258.867 229.308 227.45 253.105C222.433 257.236 218.996 264.492 219.968 271.122C233.403 308.58 196.31 332.1 192.057 364.281C184.125 417.291 236.649 452.336 262.078 495.21C265.15 499.497 268.188 503.767 271.278 508.02C277.457 516.508 283.793 524.874 290.684 532.893C297.835 541.19 306.149 548.862 315.366 554.677C318.439 556.604 321.598 558.34 324.861 559.815C328.037 561.429 331.162 563.078 334.165 564.727C336.959 566.741 339.598 568.772 342.097 570.768H342.114Z" stroke="black" stroke-width="0.32" stroke-miterlimit="10"/>
<path d="M343.642 563.234C416.839 603.73 444.264 476.845 495.157 440.012C474.9 424.98 474.779 401.339 487.276 379.191C502.881 347.582 528.293 321.285 533.517 285.546C534.003 281.033 534.489 276.52 534.958 272.007C538.62 237.292 540.46 198.966 518.989 172.599C500.052 149.375 467.853 142.64 437.946 148.976C433.502 149.913 429.146 151.215 424.893 152.777C420.64 154.339 416.509 156.179 412.517 158.193C389.449 175.047 360.409 169.215 333.904 165.24C326.961 164.007 317.813 163.122 315.314 169.111C295.3 201.379 272.423 229.55 238.159 249.268C234.08 252.132 229.376 258.451 230.036 262.859C244.442 306.931 203.895 329.843 195.233 362.666C184.125 409.393 235.052 441.296 256.194 478.372C259.231 482.538 262.199 486.687 265.168 490.835C274.055 503.281 282.907 515.761 292.905 527.46C299.831 535.549 307.919 543.012 316.841 548.671C319.827 550.563 322.899 552.247 326.058 553.687C329.2 555.18 332.307 556.638 335.345 558.062C338.209 559.797 340.986 561.533 343.659 563.234H343.642Z" stroke="black" stroke-width="0.31" stroke-miterlimit="10"/>
<path d="M344.821 555.962C416.144 591.441 444.593 479.05 488.213 438.78C455.911 410.886 492.258 367.18 508.192 337.776C516.94 320.713 528.205 305.508 528.969 286.848C529.507 282.457 529.976 278.083 530.462 273.691C534.107 239.93 535.947 202.681 515.152 177.044C496.823 154.426 465.579 147.761 436.47 153.802C432.148 154.704 427.913 155.937 423.781 157.447C419.65 158.957 415.623 160.727 411.701 162.567C383.494 180.428 346.817 161.074 323.853 173.485C290.527 191.936 258.536 227.103 247.67 260.274C235.867 294.694 214.587 326.025 201.829 361.712C184.714 405.939 239.113 438.468 259.508 474.415C262.424 478.408 265.306 482.435 268.187 486.462C276.797 498.56 285.371 510.693 295.074 522.062C301.792 529.925 309.62 537.181 318.281 542.683C321.163 544.523 324.148 546.172 327.203 547.561C330.258 548.984 333.348 550.286 336.316 551.64C339.284 553.011 342.096 554.504 344.839 555.944L344.821 555.962Z" stroke="black" stroke-width="0.31" stroke-miterlimit="10"/>
<path d="M345.864 548.88C412.327 580.748 464.486 483.997 470.579 441.401C474.832 409.22 491.617 362.788 509.113 328.645C515.032 315.367 522.218 303.043 524.405 288.185C525.013 283.915 525.499 279.662 525.967 275.409C529.578 242.603 531.435 206.447 511.335 181.504C493.595 159.477 463.323 152.899 435.03 158.662C430.83 159.512 426.716 160.71 422.689 162.168C418.68 163.626 414.757 165.327 410.886 166.976C382.888 183.917 350.013 167.375 323.264 176.974C293.357 188.152 285.685 227.606 256.767 245.415C241.371 255.587 252.81 271.921 251.612 286.744C251.334 292.42 248.835 298.426 246.023 302.227C187.007 352.651 199.278 412.83 254.198 458.88C257.166 462.664 260.03 466.5 262.86 470.388C274.177 485.889 284.765 501.945 297.28 516.664C303.772 524.301 311.357 531.348 319.741 536.712C322.535 538.5 325.417 540.097 328.385 541.468C334.286 544.263 340.205 546.71 345.881 548.862L345.864 548.88Z" stroke="black" stroke-width="0.3" stroke-miterlimit="10"/>
<path d="M346.783 541.954C409.41 568.789 447.163 488.822 471.845 442.338C474.345 436.333 467.922 415.868 470.387 401.982C481.826 357.459 516.021 321.98 521.454 277.093C522.061 271.782 522.599 266.383 523.016 260.968C525.081 233.855 523.658 206.152 507.481 185.948C490.331 164.529 461.031 158.019 433.537 163.487C429.458 164.303 425.448 165.448 421.56 166.837C417.655 168.226 413.853 169.857 410.069 171.367C383.547 188.309 348.467 172.096 324.236 183.57C294.346 194.766 275.582 227.953 258.71 258.625C253.069 266.227 263.241 281.623 256.662 290.476C215.611 340.501 184.68 398.041 248.903 444.334C251.976 447.858 254.909 451.468 257.773 455.148C272.076 473.495 284.313 493.352 299.431 511.231C305.715 518.643 313.057 525.499 321.163 530.706C325.225 533.31 329.46 535.514 333.869 537.163C338.226 538.916 342.565 540.496 346.783 541.919V541.954Z" stroke="black" stroke-width="0.29" stroke-miterlimit="10"/>
<path d="M347.615 535.167C362.282 539.697 379.015 546.224 389.065 537.979C420.153 511.96 460.058 484.656 462.384 447.111C467.505 397.902 491.562 354.89 509.614 309.395C513.659 298.651 516.766 289.174 516.905 278.777C517.495 273.621 518.05 268.397 518.467 263.137C520.532 236.858 519.213 209.988 503.609 190.374C487.067 169.562 458.704 163.14 432.026 168.312C428.068 169.076 424.18 170.169 420.396 171.506C416.612 172.843 412.897 174.37 409.252 175.897C381.931 193.03 349.386 178.692 323.575 187.024C295.889 197.89 270.183 229.863 267.822 259.509C264.871 300.508 232.534 325.59 215.037 359.733C198.773 386.932 230.433 410.417 245.569 432.67C247.965 435.412 250.377 438.172 252.773 440.949C270.53 461.466 284.034 485.003 301.583 505.815C307.658 513.001 314.74 519.649 322.568 524.718C326.491 527.252 330.587 529.387 334.84 531.001C339.093 532.633 343.38 533.969 347.58 535.132L347.615 535.167Z" stroke="black" stroke-width="0.28" stroke-miterlimit="10"/>
<path d="M348.397 528.519C366.328 528.953 384.675 538.638 398.162 523.121C414.461 503.801 431.089 486.687 451.19 470.197C456.206 466.066 460.91 459.748 462.142 452.805C463.618 432.305 461.622 411.181 468.773 390.976C482.451 354.022 505.623 320.157 512.445 280.495C513.035 275.513 513.573 270.445 513.99 265.342C516.055 239.878 514.823 213.876 499.809 194.852C483.857 174.63 456.466 168.295 430.603 173.19C426.767 173.919 423.001 174.96 419.338 176.245C387.678 193.377 352.633 185.045 318.942 193.411C299.084 196.345 286.309 224.169 282.299 242.794C270.566 292.992 232.587 325.66 215.785 372.091C211.133 386.307 227.918 400.714 236.25 413.368C238.437 416.18 240.676 418.888 242.932 421.561C247.463 426.942 252.114 432.236 256.749 437.617C273.864 457.508 286.899 480.282 303.823 500.451C312.606 510.901 323.593 520.17 335.917 524.891C340.031 526.471 344.249 527.616 348.415 528.536L348.397 528.519Z" stroke="black" stroke-width="0.27" stroke-miterlimit="10"/>
<path d="M349.093 522.01C361.885 521.732 375.147 527.651 386.464 520.344C411.303 505.399 426.612 479.466 451.451 464.521C455.53 461.657 459.297 456.606 459.575 450.913C453.586 387.557 496.217 340.692 507.898 282.161C508.489 277.336 509.027 272.424 509.443 267.494C511.509 242.864 510.38 217.712 495.939 199.278C480.577 179.664 454.159 173.398 429.094 177.998C425.38 178.675 421.735 179.682 418.176 180.897C390.786 191.745 360.219 198.532 330.572 196.154C293.045 193.828 284.488 250.31 273.622 283.463C264.63 314.1 236.98 332.846 223.25 361.92C215.126 375.528 226.235 389.658 234.793 402.589C236.771 405.384 238.82 408.091 240.902 410.747C247.169 418.732 253.921 426.386 260.621 434.215C277.076 453.482 289.66 475.491 305.959 495.019C314.43 505.121 325 514.112 336.89 518.712C340.848 520.239 344.962 521.298 349.076 521.993L349.093 522.01Z" stroke="black" stroke-width="0.26" stroke-miterlimit="10"/>
<path d="M349.717 515.64C366.571 515.397 382.992 519.719 395.854 507.672C411.545 491.825 419.634 470.353 443.882 466.76C448.291 466.101 452.058 461.05 453.603 456.311C456.432 391.654 489.603 341.664 503.367 283.862C503.957 279.193 504.495 274.455 504.912 269.681C506.978 245.866 505.953 221.566 492.085 203.722C477.331 184.715 451.867 178.519 427.601 182.841C424.008 183.483 420.484 184.42 417.03 185.548C386.394 200.285 356.452 203.583 322.066 199.66C305.976 197.543 298.217 221.219 294.485 234.167C281.814 285.633 249.841 320.782 227.363 366.936C222.989 375.476 229.359 388.043 236.962 396.167C239.669 400.263 242.568 404.203 245.571 408.074C251.594 415.816 258.068 423.227 264.508 430.83C280.321 449.472 292.419 470.735 308.111 489.62C316.251 499.393 326.44 508.089 337.862 512.567C341.68 514.06 345.621 515.084 349.665 515.64H349.717Z" stroke="black" stroke-width="0.26" stroke-miterlimit="10"/>
<path d="M350.29 509.374C381.065 514.373 403.04 495.349 419.634 470.354C424.008 461.814 436.627 463.324 445.115 459.818C450.131 455.686 452.631 449.681 452.908 444.005C455.443 385.023 487.068 339.772 498.837 285.546C499.444 281.033 499.982 276.451 500.399 271.851C502.482 248.852 501.527 225.419 488.249 208.166C474.085 189.749 449.576 183.639 426.125 187.666C422.654 188.257 419.252 189.159 415.919 190.218C386.394 200.285 359.368 215.56 325.867 202.472C311.322 195.616 303.563 219.292 299.848 232.241C287.142 275.809 266.834 313.753 239.27 348.26C232.691 357.129 231.181 369.749 234.948 381.534C237.031 385.839 239.444 389.936 242.03 393.893C249.806 405.748 259.162 416.406 268.448 427.445C283.602 445.445 295.249 465.962 310.315 484.205C318.143 493.648 327.916 502.049 338.903 506.388C342.566 507.846 346.367 508.836 350.255 509.356L350.29 509.374Z" stroke="black" stroke-width="0.25" stroke-miterlimit="10"/>
<path d="M350.843 503.125C384.5 507.1 401.701 478.633 424.284 456.138C429.3 452.007 439.437 459.522 440.982 454.784C462.141 399.812 476.357 343.608 494.322 287.247C494.929 282.891 495.468 278.464 495.884 274.038C497.967 251.872 497.117 229.273 484.411 212.609C470.837 194.8 447.3 188.777 424.666 192.509C421.316 193.065 418.035 193.915 414.806 194.887C384.864 205.024 358.151 222.503 324.321 207.211C315.781 202.837 307.05 219.917 305.21 230.332C293.164 278.326 262.441 314.429 240.9 359.299C235.588 369.106 238.487 381.066 247.079 391.619C249.561 395.438 252.2 399.135 254.96 402.763C260.479 410.001 266.433 416.961 272.369 424.061C286.863 441.436 298.059 461.189 312.5 478.789C319.999 487.885 329.389 495.991 339.925 500.226C343.432 501.632 347.077 502.622 350.826 503.108L350.843 503.125Z" stroke="black" stroke-width="0.24" stroke-miterlimit="10"/>
<path d="M351.4 496.893C387.001 501.111 400.071 467.611 422.983 447.32C427.062 444.456 436.262 453.239 437.806 448.5C463.426 400.766 471.637 342.063 489.793 288.948C490.418 284.73 490.956 280.478 491.372 276.208C493.455 254.858 492.692 233.126 480.576 217.053C469.762 202.715 452.283 196.189 434.127 196.414C430.499 196.466 426.836 196.779 423.191 197.352C388.007 203.427 358.829 234.792 323.714 210.7C322.447 209.762 319.306 211.359 317.431 213.894C299.414 267.268 269.68 309.986 245.987 363.083C241.613 371.623 248.59 380.736 252.149 389.362C254.509 393.042 257.044 396.618 259.665 400.124C264.924 407.119 270.617 413.837 276.311 420.71C290.162 437.443 300.872 456.45 314.706 473.408C321.892 482.174 330.866 489.985 340.951 494.099C344.318 495.47 347.79 496.425 351.383 496.911L351.4 496.893Z" stroke="black" stroke-width="0.23" stroke-miterlimit="10"/>
<path d="M351.956 490.662C385.7 492.276 399.1 460.998 420.745 439.769C426.716 434.371 434.961 444.421 436.835 441.887C463.722 395.09 466.899 340.518 485.281 290.649C485.923 286.588 486.444 282.509 486.86 278.395C488.943 257.861 488.283 236.979 476.741 221.496C466.43 207.645 449.697 201.275 432.236 201.361C428.747 201.379 425.223 201.656 421.717 202.177C400.627 204.937 384.276 216.376 365.408 225.922C349.682 233.89 341.715 218.164 328.784 214.449C326.579 214.779 323.108 214.154 321.233 216.688C300.682 268.188 274.09 309.309 251.334 361.139C246.96 369.679 253.937 378.792 257.201 387.071C259.457 390.63 261.853 394.066 264.352 397.434C269.368 404.186 274.801 410.678 280.217 417.291C293.426 433.399 303.667 451.659 316.894 467.975C323.767 476.411 332.342 483.927 341.976 487.919C345.187 489.239 348.519 490.176 351.956 490.645V490.662Z" stroke="black" stroke-width="0.22" stroke-miterlimit="10"/>
<path d="M352.493 484.431C382.174 483.788 398.438 456.589 414.408 435.065C421.316 428.417 432.373 434.666 433.327 433.399C464.051 397.295 464.38 338.643 480.766 292.368C481.408 288.462 481.929 284.54 482.346 280.599C484.428 260.898 483.873 240.868 472.903 225.975C464.068 213.963 450.234 207.714 435.358 206.551C430.394 206.17 425.308 206.343 420.257 207.055C397.814 208.773 382.452 226.825 359.783 233.56C349.091 237.396 336.715 222.33 333.573 223.909C295.872 250.9 281.361 312.78 256.696 359.247C252.321 367.787 258.032 375.945 262.267 384.815C264.402 388.234 266.676 391.55 269.054 394.813C273.81 401.322 278.983 407.571 284.156 413.958C296.705 429.441 306.495 446.938 319.097 462.612C325.64 470.701 333.816 477.939 342.998 481.81C346.053 483.094 349.229 484.014 352.493 484.465V484.431Z" stroke="black" stroke-width="0.21" stroke-miterlimit="10"/>
<path d="M353.031 478.199C386.879 477.453 396.148 441.14 420.657 423.991C424.736 421.127 429.804 424.894 434.873 428.643C457.993 386.898 463.426 339.893 476.253 294.034C476.878 290.285 477.416 286.518 477.833 282.734C479.933 263.849 479.447 244.686 469.067 230.383C460.684 218.823 447.509 212.731 433.258 211.498C428.502 211.082 423.642 211.22 418.782 211.863C395.002 212.54 379.346 236.268 356.034 238.594C346.279 241.162 334.84 224.829 332.028 228.63C303.874 274.489 256.21 325.503 267.336 382.489C269.333 385.804 271.485 388.998 273.741 392.122C278.254 398.371 283.149 404.394 288.079 410.539C299.969 425.397 309.29 442.147 321.284 457.161C325.433 462.334 330.275 467.142 335.622 470.874C340.968 474.606 346.835 477.279 353.049 478.182L353.031 478.199Z" stroke="black" stroke-width="0.2" stroke-miterlimit="10"/>
<path d="M353.588 471.968C386.845 469.572 393.58 431.385 419.356 415.173C425.639 411.997 433.902 422.03 435.776 419.495C457.352 382.489 459.643 337.081 471.759 295.735C472.384 292.142 472.904 288.549 473.321 284.939C475.421 266.887 475.039 248.557 465.232 234.844C457.282 223.736 444.767 217.799 431.159 216.497C426.629 216.063 421.96 216.133 417.308 216.706C394.708 218.233 380.301 235.018 362.683 245.519C351.973 249.355 343.086 234.896 338.99 237.761C299.657 253.73 288.288 314.013 268.639 356.366C265.202 363.638 268.726 372.126 272.371 380.25C274.246 383.444 276.276 386.498 278.411 389.501C282.664 395.507 287.316 401.305 291.985 407.206C303.233 421.422 312.085 437.426 323.455 451.798C327.395 456.745 331.977 461.345 337.063 464.938C342.149 468.531 347.703 471.117 353.605 472.002L353.588 471.968Z" stroke="black" stroke-width="0.2" stroke-miterlimit="10"/>
<path d="M354.142 465.754C383.338 461.067 394.864 432.323 412.1 411.737C420.883 402.554 430.395 413.542 433.207 409.74C459.226 379.972 457.108 335.207 467.262 297.419C467.853 293.999 468.373 290.563 468.79 287.108C470.89 269.872 470.613 252.393 461.378 239.288C453.88 228.63 442.007 222.85 429.041 221.479C424.719 221.028 420.275 221.045 415.832 221.548C408.923 222.885 402.31 223.874 396.009 227.051C376.517 240.086 356.139 262.252 334.91 240.607C307.659 277.319 266.937 329.548 277.422 377.941C279.175 380.996 281.084 383.93 283.097 386.811C287.107 392.574 291.481 398.128 295.89 403.787C306.496 417.378 314.879 432.618 325.624 446.348C329.338 451.069 333.678 455.478 338.486 458.915C343.294 462.352 348.553 464.851 354.125 465.736L354.142 465.754Z" stroke="black" stroke-width="0.19" stroke-miterlimit="10"/>
<path d="M354.679 459.54C359.21 458.724 363.445 457.04 367.35 454.888C387.329 442.442 396.685 421.908 411.092 405.123C416.733 397.521 431.261 404.394 432.199 403.127C458.548 375.563 453.601 334.599 462.731 299.102C463.581 294.242 464.328 289.295 464.796 284.366C466.22 269.594 465.282 255.014 457.506 243.731C450.459 233.525 439.246 227.901 426.904 226.443C422.791 225.957 418.555 225.94 414.32 226.374C390.297 226.756 380.334 250.761 358.932 258.433C349.177 261.002 340.88 243.072 336.176 249.407C306.078 282.04 273.515 328.558 282.436 375.633C284.068 378.566 285.856 381.378 287.748 384.12C291.515 389.64 295.611 394.952 299.777 400.385C309.723 413.333 317.638 427.827 327.775 440.932C334.787 449.941 344.143 457.717 354.644 459.522L354.679 459.54Z" stroke="black" stroke-width="0.18" stroke-miterlimit="10"/>
<path d="M355.236 453.308C359.541 452.458 363.568 450.739 367.317 448.518C394.864 432.306 404.793 400.419 434.353 387.019C458.584 375.546 449.836 331.77 458.272 300.769C459.105 296.152 459.834 291.448 460.32 286.779C461.778 272.754 460.962 258.902 453.707 248.175C447.111 238.42 436.54 232.953 424.858 231.425C420.97 230.922 416.943 230.852 412.899 231.217C387.539 230.557 379.485 259.909 355.219 263.502C349.543 263.207 341.628 255.379 339.424 255.708C307.364 275.097 287.75 325.33 284.348 364.229C285.962 370.651 288.982 376.223 292.488 381.482C295.995 386.759 299.848 391.845 303.754 397.017C313.057 409.341 320.504 423.089 330.016 435.534C336.594 444.091 345.377 451.503 355.254 453.308H355.236Z" stroke="black" stroke-width="0.17" stroke-miterlimit="10"/>
<path d="M355.774 447.094C359.853 446.209 363.672 444.49 367.248 442.234C393.267 429.164 400.331 393.199 430.551 384.207C457.629 376.813 445.427 332.412 453.758 302.453C454.591 298.078 455.32 293.635 455.806 289.209C457.282 275.913 456.605 262.825 449.853 252.619C443.691 243.298 433.797 238.003 422.74 236.424C419.06 235.886 415.242 235.782 411.405 236.059C404.254 237.101 396.704 239.34 390.42 242.516C376.291 253.625 361.537 268.206 340.1 267.998C309.828 269.091 290.266 327.205 289.398 362.51C291.082 368.516 293.894 373.81 297.157 378.826C300.42 383.843 303.996 388.703 307.641 393.632C316.285 405.314 323.263 418.315 332.168 430.118C338.33 438.224 346.54 445.272 355.774 447.077V447.094Z" stroke="black" stroke-width="0.16" stroke-miterlimit="10"/>
<path d="M356.329 440.88C360.2 439.96 363.793 438.259 367.16 436.037C392.902 419.096 400.608 387.522 432.72 376.014C454.122 368.342 442.892 330.554 449.262 304.171C450.078 300.04 450.807 295.839 451.31 291.656C452.803 279.106 452.265 266.748 446.033 257.079C440.323 248.21 431.071 243.072 420.657 241.405C417.185 240.85 413.592 240.694 409.947 240.902C388.232 242.863 377.609 262.46 362.196 272.632C352.753 277.405 341.974 265.48 336.02 270.879C310.904 291.5 293.737 327.847 294.831 360.618C296.237 366.398 298.84 371.414 301.843 376.188C304.846 380.961 308.161 385.596 311.563 390.282C319.565 401.339 326.074 413.576 334.354 424.737C340.082 432.392 347.72 439.075 356.312 440.897L356.329 440.88Z" stroke="black" stroke-width="0.15" stroke-miterlimit="10"/>
<path d="M356.887 434.649C360.532 433.694 363.917 432.011 367.093 429.806C391.307 415.937 397.122 379.018 428.938 373.185C451.937 368.655 437.235 330.26 444.751 305.838C445.567 301.949 446.296 297.992 446.799 294.052C448.327 282.248 447.893 270.636 442.2 261.506C435.187 250.276 422.238 245.172 408.491 245.728C404.499 245.884 400.611 246.926 396.861 247.863C378.237 258.972 364.142 277.961 338.626 280.617C313.093 283.273 298.183 327.17 300.075 358.831C301.429 364.246 303.824 368.967 306.584 373.498C309.344 378.028 312.399 382.42 315.541 386.881C322.9 397.295 328.923 408.821 336.596 419.322C341.89 426.543 348.972 432.844 356.921 434.666L356.887 434.649Z" stroke="black" stroke-width="0.15" stroke-miterlimit="10"/>
</svg>
