<svg width="404" height="381" viewBox="0 0 404 381" fill="none" xmlns="http://www.w3.org/2000/svg">
<path d="M-255.466 94.7528C-253.693 77.7488 -245.82 65.33 -236.626 54.8647C-166.256 -25.1711 -19.9925 -3.46692 58.5689 -73.955C85.4908 -98.1089 103.492 -132.328 126.228 -161.283C140.274 -179.167 156.479 -195.257 178.982 -201.91C201.485 -208.562 231.144 -204.861 261.391 -185.681C288.247 -168.65 312.874 -141.404 335.309 -114.112C366.627 -75.9971 397.922 -31.1785 403.155 7.83339C406.54 33.0841 398.28 51.6761 388.609 67.6906C367.863 102.055 339.948 129.287 306.104 148.2C261.99 172.856 207.404 183.838 174.308 222.248C143.617 257.87 133.612 314.785 102.578 350.014C80.319 375.282 45.8578 388.554 2.62918 376.496C-40.5995 364.437 -92.7055 323.352 -120.205 272.757C-133.288 248.694 -142.333 221.183 -162.766 202.902C-185.667 182.406 -209.434 182.472 -232.84 160.583C-252.792 141.914 -257.235 111.783 -255.454 94.7562L-255.466 94.7528Z" fill="#FFF3CC"/>
</svg>
