<svg width="56" height="56" viewBox="0 0 56 56" fill="none" xmlns="http://www.w3.org/2000/svg">
<circle cx="28" cy="28" r="28" fill="#FFC700"/>
<path fill-rule="evenodd" clip-rule="evenodd" d="M35.849 32.396C36.579 31.096 37 29.598 37 28C37 23.029 32.971 19 28 19C23.029 19 19 23.029 19 28C19 32.971 23.029 37 28 37C29.598 37 31.096 36.579 32.396 35.849L37 37L35.849 32.396Z" stroke="#323232" stroke-width="1.5882" stroke-linecap="round" stroke-linejoin="round"/>
<path d="M27.8231 28.323C27.9211 28.225 28.0791 28.225 28.1771 28.323C28.2751 28.421 28.2751 28.579 28.1771 28.677C28.0791 28.775 27.9211 28.775 27.8231 28.677C27.7261 28.579 27.7261 28.421 27.8231 28.323" stroke="#323232" stroke-width="1.5" stroke-linecap="round" stroke-linejoin="round"/>
<path d="M23.8226 28.323C23.9206 28.225 24.0786 28.225 24.1766 28.323C24.2746 28.421 24.2746 28.579 24.1766 28.677C24.0786 28.775 23.9206 28.775 23.8226 28.677C23.7256 28.579 23.7256 28.421 23.8226 28.323" stroke="#323232" stroke-width="1.5" stroke-linecap="round" stroke-linejoin="round"/>
<path d="M31.8221 28.323C31.9201 28.225 32.0781 28.225 32.1761 28.323C32.2741 28.421 32.2741 28.579 32.1761 28.677C32.0781 28.775 31.9201 28.775 31.8221 28.677C31.7251 28.579 31.7251 28.421 31.8221 28.323" stroke="#323232" stroke-width="1.5" stroke-linecap="round" stroke-linejoin="round"/>
</svg>
