<svg width="24" height="24" viewBox="0 0 24 24" fill="none" xmlns="http://www.w3.org/2000/svg">
<path d="M23.5 12C23.5 18.3513 18.3513 23.5 12 23.5C5.64872 23.5 0.5 18.3513 0.5 12C0.5 5.64872 5.64872 0.5 12 0.5C18.3513 0.5 23.5 5.64872 23.5 12Z" fill="#E79A25"/>
<path d="M11.9993 2.03303C6.49444 2.03303 2.03201 6.49545 2.03201 12.0003C2.03201 17.5052 6.49444 21.9678 11.9993 21.9678C17.5039 21.9678 21.9666 17.5052 21.9666 12.0003C21.9666 6.49545 17.5039 2.03303 11.9993 2.03303ZM11.9993 2.6351C17.1633 2.6351 21.3645 6.83632 21.3645 12.0003C21.3645 17.1643 17.1633 21.3655 11.9993 21.3655C6.83531 21.3655 2.63408 17.1643 2.63408 12.0003C2.63408 6.83632 6.83531 2.6351 11.9993 2.6351Z" fill="#DD7407"/>
<path d="M11.722 9.24713H9.4212V10.8229H11.722V9.24713Z" fill="#EA8B28"/>
<path d="M13.9899 10.8898C14.1022 10.9964 14.2322 11.0826 14.3741 11.1445C14.5196 11.2073 14.6764 11.2398 14.8348 11.2398C14.9933 11.2398 15.1501 11.2073 15.2955 11.1445C15.437 11.0818 15.5669 10.9958 15.6797 10.8898C15.9071 10.6594 16.0345 10.3488 16.0345 10.0252C16.0345 9.7015 15.9071 9.39087 15.6797 9.16049C15.5677 9.05355 15.4376 8.96733 15.2955 8.90585C15.1501 8.84298 14.9933 8.81055 14.8348 8.81055C14.6764 8.81055 14.5196 8.84298 14.3741 8.90585C14.2316 8.96655 14.1014 9.05286 13.9899 9.16049C13.8749 9.27318 13.7834 9.40771 13.721 9.55619C13.6586 9.70466 13.6265 9.8641 13.6265 10.0252C13.6265 10.1862 13.6586 10.3457 13.721 10.4941C13.7834 10.6426 13.8749 10.7771 13.9899 10.8898Z" fill="#EA8B28"/>
<path d="M8.35376 5.33984L7.65286 6.75116L11.8131 8.81724L12.514 7.40592L8.35376 5.33984Z" fill="#EA8B28"/>
<path d="M15.5325 12.0628C13.4961 12.4405 12.8877 11.2393 12.8877 11.2393L11.7862 12.1885C12.0039 12.5046 12.2829 12.7738 12.6065 12.9801C12.9301 13.1864 13.2919 13.3257 13.6704 13.3898L12.5559 18.6549H14.1719L15.5325 12.0628Z" fill="#EA8B28"/>
<path d="M11.2279 9.24713H8.92703V10.8229H11.2279V9.24713Z" fill="#FFE58A"/>
<path d="M13.4957 10.8898C13.608 10.9964 13.7381 11.0826 13.88 11.1445C14.0254 11.2073 14.1822 11.2398 14.3407 11.2398C14.4991 11.2398 14.6559 11.2073 14.8013 11.1445C14.9428 11.0818 15.0728 10.9958 15.1856 10.8898C15.4129 10.6594 15.5403 10.3488 15.5403 10.0252C15.5403 9.7015 15.4129 9.39087 15.1856 9.16049C15.0736 9.05355 14.9435 8.96733 14.8013 8.90585C14.6559 8.84298 14.4991 8.81055 14.3407 8.81055C14.1822 8.81055 14.0254 8.84298 13.88 8.90585C13.7374 8.96655 13.6072 9.05286 13.4957 9.16049C13.3807 9.27318 13.2893 9.40771 13.2269 9.55619C13.1645 9.70466 13.1323 9.8641 13.1323 10.0252C13.1323 10.1862 13.1645 10.3457 13.2269 10.4941C13.2893 10.6426 13.3807 10.7771 13.4957 10.8898Z" fill="#FFE58A"/>
<path d="M7.85958 5.33984L7.15869 6.75116L11.319 8.81724L12.0199 7.40592L7.85958 5.33984Z" fill="#FFE58A"/>
<path d="M15.0384 12.0628C13.0019 12.4405 12.3935 11.2393 12.3935 11.2393L11.292 12.1885C11.5097 12.5046 11.7887 12.7738 12.1123 12.9801C12.436 13.1864 12.7977 13.3257 13.1762 13.3898L12.0617 18.6549H13.6777L15.0384 12.0628Z" fill="#FFE58A"/>
</svg>
