<svg width="22" height="23" viewBox="0 0 22 23" fill="none" xmlns="http://www.w3.org/2000/svg">
<path d="M19.3791 6.78567H7.85528M5.76004 6.78567H2.61719M19.3791 17.2619H7.85528M5.76004 17.2619H2.61719M14.141 12.0238H2.61719M19.3791 12.0238H16.2362M6.80766 4.69043C7.08551 4.69043 7.35198 4.8008 7.54844 4.99727C7.74491 5.19374 7.85528 5.4602 7.85528 5.73805V7.83329C7.85528 8.11113 7.74491 8.3776 7.54844 8.57407C7.35198 8.77053 7.08551 8.88091 6.80766 8.88091C6.52982 8.88091 6.26335 8.77053 6.06689 8.57407C5.87042 8.3776 5.76004 8.11113 5.76004 7.83329V5.73805C5.76004 5.4602 5.87042 5.19374 6.06689 4.99727C6.26335 4.8008 6.52982 4.69043 6.80766 4.69043ZM6.80766 15.1666C7.08551 15.1666 7.35198 15.277 7.54844 15.4735C7.74491 15.6699 7.85528 15.9364 7.85528 16.2142V18.3095C7.85528 18.5873 7.74491 18.8538 7.54844 19.0503C7.35198 19.2467 7.08551 19.3571 6.80766 19.3571C6.52982 19.3571 6.26335 19.2467 6.06689 19.0503C5.87042 18.8538 5.76004 18.5873 5.76004 18.3095V16.2142C5.76004 15.9364 5.87042 15.6699 6.06689 15.4735C6.26335 15.277 6.52982 15.1666 6.80766 15.1666ZM15.1886 9.92853C15.4665 9.92853 15.7329 10.0389 15.9294 10.2354C16.1259 10.4318 16.2362 10.6983 16.2362 10.9761V13.0714C16.2362 13.3492 16.1259 13.6157 15.9294 13.8122C15.7329 14.0086 15.4665 14.119 15.1886 14.119C14.9108 14.119 14.6443 14.0086 14.4478 13.8122C14.2514 13.6157 14.141 13.3492 14.141 13.0714V10.9761C14.141 10.6983 14.2514 10.4318 14.4478 10.2354C14.6443 10.0389 14.9108 9.92853 15.1886 9.92853Z" stroke="black" stroke-width="1.5" stroke-linecap="round" stroke-linejoin="round"/>
</svg>
