<svg width="24" height="24" viewBox="0 0 24 24" fill="none" xmlns="http://www.w3.org/2000/svg">
<g clip-path="url(#clip0_1_703)">
<rect width="24" height="24" fill="#FAF5FC"/>
<path d="M9.87608 12.0574C9.87608 10.8511 10.8543 9.87294 12.0614 9.87294C13.2684 9.87294 14.2472 10.8511 14.2472 12.0574C14.2472 13.2637 13.2684 14.2419 12.0614 14.2419C10.8543 14.2419 9.87608 13.2637 9.87608 12.0574ZM8.69448 12.0574C8.69448 13.9158 10.2018 15.4223 12.0614 15.4223C13.9209 15.4223 15.4282 13.9158 15.4282 12.0574C15.4282 10.199 13.9209 8.69257 12.0614 8.69257C10.2018 8.69257 8.69448 10.199 8.69448 12.0574ZM14.7747 8.55915C14.7746 8.71468 14.8207 8.86673 14.9071 8.99608C14.9935 9.12543 15.1164 9.22627 15.2601 9.28584C15.4039 9.34541 15.5621 9.36105 15.7147 9.33077C15.8674 9.30049 16.0076 9.22565 16.1177 9.11572C16.2278 9.00579 16.3028 8.86571 16.3332 8.71318C16.3636 8.56066 16.3481 8.40254 16.2886 8.25883C16.2291 8.11512 16.1283 7.99227 15.9989 7.90581C15.8696 7.81935 15.7175 7.77317 15.5618 7.77311H15.5615C15.3529 7.77321 15.1529 7.85604 15.0054 8.00342C14.8578 8.1508 14.7749 8.35068 14.7747 8.55915ZM9.41238 17.3914C8.77311 17.3623 8.42565 17.2559 8.19474 17.166C7.88861 17.0468 7.67019 16.905 7.44054 16.6758C7.21089 16.4466 7.06874 16.2285 6.95009 15.9226C6.86007 15.6919 6.75359 15.3445 6.72453 14.7057C6.69274 14.0149 6.6864 13.8074 6.6864 12.0575C6.6864 10.3075 6.69327 10.1006 6.72453 9.4093C6.75364 8.77042 6.86091 8.42374 6.95009 8.19239C7.06927 7.88645 7.21121 7.66816 7.44054 7.43865C7.66988 7.20914 7.88809 7.06707 8.19474 6.94849C8.42554 6.85853 8.77311 6.75211 9.41238 6.72307C10.1035 6.6913 10.3111 6.68495 12.0614 6.68495C13.8116 6.68495 14.0194 6.69182 14.7111 6.72307C15.3504 6.75216 15.6973 6.85937 15.9288 6.94849C16.2349 7.06707 16.4533 7.20945 16.683 7.43865C16.9126 7.66784 17.0542 7.88645 17.1734 8.19239C17.2634 8.42306 17.3699 8.77042 17.399 9.4093C17.4308 10.1006 17.4371 10.3075 17.4371 12.0575C17.4371 13.8074 17.4308 14.0144 17.399 14.7057C17.3699 15.3445 17.2629 15.6918 17.1734 15.9226C17.0542 16.2285 16.9123 16.4468 16.683 16.6758C16.4536 16.9048 16.2349 17.0468 15.9288 17.166C15.698 17.2559 15.3504 17.3623 14.7111 17.3914C14.02 17.4231 13.8124 17.4295 12.0614 17.4295C10.3104 17.4295 10.1033 17.4231 9.41238 17.3914ZM9.35809 5.54416C8.66007 5.57593 8.1831 5.68655 7.76655 5.84853C7.33516 6.01582 6.96997 6.24024 6.60504 6.60438C6.24011 6.96851 6.01613 7.33406 5.84874 7.76519C5.68665 8.18175 5.57597 8.65818 5.54419 9.35578C5.51187 10.0545 5.50448 10.2779 5.50448 12.0574C5.50448 13.837 5.51187 14.0604 5.54419 14.7591C5.57597 15.4567 5.68665 15.9331 5.84874 16.3497C6.01613 16.7805 6.24016 17.1465 6.60504 17.5105C6.96992 17.8745 7.33516 18.0986 7.76655 18.2663C8.18388 18.4283 8.66007 18.5389 9.35809 18.5707C10.0576 18.6025 10.2807 18.6104 12.0614 18.6104C13.842 18.6104 14.0655 18.603 14.7646 18.5707C15.4627 18.5389 15.9394 18.4283 16.3562 18.2663C16.7873 18.0986 17.1528 17.8746 17.5177 17.5105C17.8826 17.1463 18.1061 16.7805 18.274 16.3497C18.4361 15.9331 18.5473 15.4567 18.5785 14.7591C18.6103 14.0599 18.6177 13.837 18.6177 12.0574C18.6177 10.2779 18.6103 10.0545 18.5785 9.35578C18.5467 8.65813 18.4361 8.18149 18.274 7.76519C18.1061 7.33432 17.882 6.96909 17.5177 6.60438C17.1533 6.23967 16.7873 6.01582 16.3567 5.84853C15.9394 5.68655 15.4627 5.57541 14.7652 5.54416C14.066 5.51239 13.8425 5.50448 12.0619 5.50448C10.2812 5.50448 10.0576 5.51187 9.35809 5.54416Z" fill="url(#paint0_radial_1_703)"/>
<path d="M9.87608 12.0574C9.87608 10.8511 10.8543 9.87294 12.0614 9.87294C13.2684 9.87294 14.2472 10.8511 14.2472 12.0574C14.2472 13.2637 13.2684 14.2419 12.0614 14.2419C10.8543 14.2419 9.87608 13.2637 9.87608 12.0574ZM8.69448 12.0574C8.69448 13.9158 10.2018 15.4223 12.0614 15.4223C13.9209 15.4223 15.4282 13.9158 15.4282 12.0574C15.4282 10.199 13.9209 8.69257 12.0614 8.69257C10.2018 8.69257 8.69448 10.199 8.69448 12.0574ZM14.7747 8.55915C14.7746 8.71468 14.8207 8.86673 14.9071 8.99608C14.9935 9.12543 15.1164 9.22627 15.2601 9.28584C15.4039 9.34541 15.5621 9.36105 15.7147 9.33077C15.8674 9.30049 16.0076 9.22565 16.1177 9.11572C16.2278 9.00579 16.3028 8.86571 16.3332 8.71318C16.3636 8.56066 16.3481 8.40254 16.2886 8.25883C16.2291 8.11512 16.1283 7.99227 15.9989 7.90581C15.8696 7.81935 15.7175 7.77317 15.5618 7.77311H15.5615C15.3529 7.77321 15.1529 7.85604 15.0054 8.00342C14.8578 8.1508 14.7749 8.35068 14.7747 8.55915ZM9.41238 17.3914C8.77311 17.3623 8.42565 17.2559 8.19474 17.166C7.88861 17.0468 7.67019 16.905 7.44054 16.6758C7.21089 16.4466 7.06874 16.2285 6.95009 15.9226C6.86007 15.6919 6.75359 15.3445 6.72453 14.7057C6.69274 14.0149 6.6864 13.8074 6.6864 12.0575C6.6864 10.3075 6.69327 10.1006 6.72453 9.4093C6.75364 8.77042 6.86091 8.42374 6.95009 8.19239C7.06927 7.88645 7.21121 7.66816 7.44054 7.43865C7.66988 7.20914 7.88809 7.06707 8.19474 6.94849C8.42554 6.85853 8.77311 6.75211 9.41238 6.72307C10.1035 6.6913 10.3111 6.68495 12.0614 6.68495C13.8116 6.68495 14.0194 6.69182 14.7111 6.72307C15.3504 6.75216 15.6973 6.85937 15.9288 6.94849C16.2349 7.06707 16.4533 7.20945 16.683 7.43865C16.9126 7.66784 17.0542 7.88645 17.1734 8.19239C17.2634 8.42306 17.3699 8.77042 17.399 9.4093C17.4308 10.1006 17.4371 10.3075 17.4371 12.0575C17.4371 13.8074 17.4308 14.0144 17.399 14.7057C17.3699 15.3445 17.2629 15.6918 17.1734 15.9226C17.0542 16.2285 16.9123 16.4468 16.683 16.6758C16.4536 16.9048 16.2349 17.0468 15.9288 17.166C15.698 17.2559 15.3504 17.3623 14.7111 17.3914C14.02 17.4231 13.8124 17.4295 12.0614 17.4295C10.3104 17.4295 10.1033 17.4231 9.41238 17.3914ZM9.35809 5.54416C8.66007 5.57593 8.1831 5.68655 7.76655 5.84853C7.33516 6.01582 6.96997 6.24024 6.60504 6.60438C6.24011 6.96851 6.01613 7.33406 5.84874 7.76519C5.68665 8.18175 5.57597 8.65818 5.54419 9.35578C5.51187 10.0545 5.50448 10.2779 5.50448 12.0574C5.50448 13.837 5.51187 14.0604 5.54419 14.7591C5.57597 15.4567 5.68665 15.9331 5.84874 16.3497C6.01613 16.7805 6.24016 17.1465 6.60504 17.5105C6.96992 17.8745 7.33516 18.0986 7.76655 18.2663C8.18388 18.4283 8.66007 18.5389 9.35809 18.5707C10.0576 18.6025 10.2807 18.6104 12.0614 18.6104C13.842 18.6104 14.0655 18.603 14.7646 18.5707C15.4627 18.5389 15.9394 18.4283 16.3562 18.2663C16.7873 18.0986 17.1528 17.8746 17.5177 17.5105C17.8826 17.1463 18.1061 16.7805 18.274 16.3497C18.4361 15.9331 18.5473 15.4567 18.5785 14.7591C18.6103 14.0599 18.6177 13.837 18.6177 12.0574C18.6177 10.2779 18.6103 10.0545 18.5785 9.35578C18.5467 8.65813 18.4361 8.18149 18.274 7.76519C18.1061 7.33432 17.882 6.96909 17.5177 6.60438C17.1533 6.23967 16.7873 6.01582 16.3567 5.84853C15.9394 5.68655 15.4627 5.57541 14.7652 5.54416C14.066 5.51239 13.8425 5.50448 12.0619 5.50448C10.2812 5.50448 10.0576 5.51187 9.35809 5.54416Z" fill="url(#paint1_radial_1_703)"/>
</g>
<defs>
<radialGradient id="paint0_radial_1_703" cx="0" cy="0" r="1" gradientUnits="userSpaceOnUse" gradientTransform="translate(7.24672 18.6723) scale(17.1189 17.1087)">
<stop offset="0.09" stop-color="#FA8F21"/>
<stop offset="0.78" stop-color="#D82D7E"/>
</radialGradient>
<radialGradient id="paint1_radial_1_703" cx="0" cy="0" r="1" gradientUnits="userSpaceOnUse" gradientTransform="translate(13.4574 19.2594) scale(13.4921 13.484)">
<stop offset="0.64" stop-color="#8C3AAA" stop-opacity="0"/>
<stop offset="1" stop-color="#8C3AAA"/>
</radialGradient>
<clipPath id="clip0_1_703">
<rect width="24" height="24" rx="12" fill="white"/>
</clipPath>
</defs>
</svg>
