<svg width="32" height="32" viewBox="0 0 32 32" fill="none" xmlns="http://www.w3.org/2000/svg">
<rect width="32" height="32" rx="16" fill="#FFC700"/>
<path d="M16.3887 17.845L14.8647 16.339L14.8827 16.321C15.9267 15.157 16.6706 13.819 17.1087 12.403H18.8667V11.2H14.6667V10H13.4667V11.2H9.26666V12.394H15.9686C15.5636 13.552 14.9306 14.65 14.0666 15.61C13.5086 14.989 13.0466 14.314 12.6806 13.6H11.4807C11.9187 14.578 12.5187 15.502 13.2687 16.336L10.2177 19.351L11.0667 20.2L14.0667 17.2L15.9327 19.066L16.3887 17.845Z" fill="#1F1F1F"/>
<path d="M19.7665 14.8H18.5665L15.8665 22H17.0665L17.7415 20.2H20.5915L21.2665 22H22.4665L19.7665 14.8ZM18.1915 19L19.1665 16.399L20.1415 19H18.1915Z" fill="#1F1F1F"/>
</svg>
