<svg width="11" height="14" viewBox="0 0 11 14" fill="none" xmlns="http://www.w3.org/2000/svg">
<path d="M9.83594 6.02344H9.5651V4.39844C9.5651 2.1581 7.74348 0.335938 5.5026 0.335938C3.26227 0.335938 1.4401 2.1581 1.4401 4.39844V6.02344H1.16927C0.571271 6.02344 0.0859375 6.50877 0.0859375 7.10677V12.5234C0.0859375 13.1214 0.571271 13.6068 1.16927 13.6068H9.83594C10.4339 13.6068 10.9193 13.1214 10.9193 12.5234V7.10677C10.9193 6.50877 10.4339 6.02344 9.83594 6.02344ZM6.04427 9.66506V11.1693C6.04427 11.3182 5.9224 11.4401 5.77344 11.4401H5.23177C5.08227 11.4401 4.96094 11.3182 4.96094 11.1693V9.66506C4.63865 9.4771 4.41927 9.1326 4.41927 8.73177C4.41927 8.13377 4.9046 7.64844 5.5026 7.64844C6.1006 7.64844 6.58594 8.13377 6.58594 8.73177C6.58594 9.13152 6.3671 9.4771 6.04427 9.66506ZM7.9401 6.02344H3.0651V4.39844C3.0651 3.05456 4.15873 1.96094 5.5026 1.96094C6.84594 1.96094 7.9401 3.05456 7.9401 4.39844V6.02344Z" fill="#1F1F1F"/>
</svg>
