<svg width="50" height="50" viewBox="0 0 50 50" fill="none" xmlns="http://www.w3.org/2000/svg">
<g clip-path="url(#clip0_257_26)">
<path d="M40.3687 50H9.6313C4.31122 50 0 45.6888 0 40.3687V9.6313C0 4.31122 4.31122 0 9.6313 0H40.3687C45.6888 0 50 4.31122 50 9.6313V40.3687C50 45.6864 45.6888 50 40.3687 50Z" fill="#FFC810"/>
<path d="M31.1317 8.17988V8.21375C25.2189 8.32746 24.4544 9.15003 24.3552 15.1644H24.3262C24.227 9.10164 23.4528 8.31294 17.4142 8.21133V8.17988C23.3778 8.07827 24.2052 7.30651 24.3213 1.44934H24.36C24.4738 7.26296 25.2915 8.06617 31.1317 8.17746" fill="#010101"/>
<path d="M11.136 38.0216C10.8142 37.9273 10.5554 37.8063 10.3618 37.6587L10.7054 36.8991C10.8916 37.037 11.1142 37.1458 11.3707 37.2281C11.6271 37.3104 11.886 37.3515 12.1424 37.3515C12.4279 37.3515 12.6408 37.3079 12.7763 37.2233C12.9118 37.1386 12.9819 37.0249 12.9819 36.8846C12.9819 36.7805 12.9408 36.6934 12.861 36.6257C12.7811 36.5579 12.6771 36.5023 12.5489 36.4612C12.4231 36.42 12.2513 36.3741 12.036 36.3233C11.7045 36.2434 11.4312 36.166 11.2207 36.0862C11.0102 36.0063 10.8287 35.8805 10.6763 35.7063C10.5239 35.5322 10.4489 35.2999 10.4489 35.0096C10.4489 34.7556 10.5167 34.5281 10.6546 34.3225C10.7925 34.1168 10.9981 33.9548 11.2739 33.8338C11.5497 33.7128 11.886 33.6523 12.2852 33.6523C12.5634 33.6523 12.8344 33.6862 13.1005 33.7515C13.3666 33.8169 13.5989 33.9136 13.7972 34.037L13.4852 34.8039C13.0835 34.5765 12.6795 34.4604 12.2779 34.4604C11.9949 34.4604 11.7868 34.5064 11.6513 34.5983C11.5158 34.6902 11.4481 34.8112 11.4481 34.9588C11.4481 35.1064 11.5255 35.2201 11.6803 35.2926C11.8352 35.3652 12.0723 35.4378 12.394 35.508C12.7255 35.5878 12.9989 35.6652 13.2094 35.7451C13.4198 35.8249 13.6013 35.9483 13.7537 36.1176C13.9061 36.287 13.9811 36.5192 13.9811 36.8095C13.9811 37.0587 13.911 37.2862 13.7731 37.4918C13.6327 37.6974 13.4247 37.8595 13.1464 37.9805C12.8682 38.1015 12.5295 38.162 12.1328 38.162C11.7892 38.162 11.4553 38.116 11.1336 38.0216H11.136Z" fill="#010101"/>
<path d="M16.422 37.8692C16.0591 37.6732 15.7736 37.4047 15.5704 37.0636C15.3647 36.72 15.2631 36.3353 15.2631 35.9095C15.2631 35.4837 15.3647 35.0967 15.5704 34.7555C15.776 34.412 16.0591 34.1434 16.422 33.9499C16.7849 33.7539 17.1937 33.6572 17.6462 33.6572C18.0986 33.6572 18.505 33.7539 18.8655 33.9499C19.226 34.1459 19.5114 34.4144 19.7171 34.7555C19.9251 35.0991 20.0292 35.4837 20.0292 35.9095C20.0292 36.3353 19.9251 36.7224 19.7171 37.0636C19.509 37.4071 19.226 37.6757 18.8655 37.8692C18.505 38.0652 18.0986 38.1619 17.6462 38.1619C17.1937 38.1619 16.7849 38.0652 16.422 37.8692ZM18.3429 37.124C18.551 37.0055 18.7131 36.841 18.8316 36.6305C18.9502 36.4176 19.0082 36.1781 19.0082 35.9071C19.0082 35.6362 18.9502 35.3967 18.8316 35.1862C18.7131 34.9757 18.551 34.8088 18.3429 34.6902C18.1349 34.5717 17.9026 34.5136 17.6462 34.5136C17.3897 34.5136 17.1574 34.5717 16.9494 34.6902C16.7413 34.8088 16.5792 34.9733 16.4607 35.1862C16.3421 35.3991 16.2841 35.6386 16.2841 35.9071C16.2841 36.1757 16.3421 36.4176 16.4607 36.6305C16.5792 36.841 16.7413 37.0079 16.9494 37.124C17.1574 37.2426 17.3897 37.3007 17.6462 37.3007C17.9026 37.3007 18.1349 37.2426 18.3429 37.124Z" fill="#010101"/>
<path d="M22.417 37.8718C22.059 37.6782 21.7759 37.4121 21.5703 37.0685C21.3646 36.725 21.263 36.3403 21.263 35.9073C21.263 35.4742 21.3646 35.0895 21.5703 34.746C21.7759 34.4025 22.059 34.1363 22.417 33.9428C22.7751 33.7492 23.1791 33.6525 23.6267 33.6525C24.0041 33.6525 24.3452 33.7178 24.65 33.8508C24.9549 33.9839 25.2113 34.175 25.4194 34.4242L24.771 35.0218C24.4759 34.6807 24.1105 34.5113 23.6751 34.5113C23.4041 34.5113 23.1646 34.5694 22.9541 34.6879C22.7436 34.8065 22.5767 34.971 22.4581 35.1839C22.3396 35.3968 22.2815 35.6363 22.2815 35.9048C22.2815 36.1734 22.3396 36.4153 22.4581 36.6282C22.5767 36.8387 22.7412 37.0056 22.9541 37.1218C23.167 37.2403 23.4065 37.2984 23.6751 37.2984C24.1105 37.2984 24.4759 37.1266 24.771 36.7806L25.4194 37.3782C25.2113 37.6322 24.9549 37.8234 24.6476 37.9564C24.3404 38.0895 23.9992 38.1548 23.6194 38.1548C23.1743 38.1548 22.7727 38.058 22.4146 37.8645L22.417 37.8718Z" fill="#010101"/>
<path d="M26.9414 33.7305H27.9503V38.0877H26.9414V33.7305Z" fill="#010101"/>
<path d="M32.7357 37.1538H30.7131L30.3285 38.0877H29.2954L31.2381 33.7305H32.2349L34.1824 38.0877H33.1252L32.7381 37.1538H32.7357ZM32.4187 36.3869L31.7268 34.7176L31.0349 36.3869H32.4163H32.4187Z" fill="#010101"/>
<path d="M35.6245 33.7305H36.6334V37.2651H38.818V38.0877H35.6245V33.7305Z" fill="#010101"/>
<path d="M21.7013 23.8283C21.6675 23.8162 21.6312 23.8041 21.5973 23.792C22.1731 23.4896 22.6304 23.1074 22.9618 22.6404C23.361 22.0792 23.5618 21.438 23.5618 20.7219C23.5618 19.6381 23.0949 18.7502 22.161 18.051C21.2272 17.3542 19.778 17.0059 17.8159 17.0059H11.2765C10.6934 17.0059 10.2217 17.4776 10.2217 18.0607V30.1621C10.2217 30.7452 10.6934 31.2169 11.2765 31.2169H18.2224C20.1844 31.2169 21.6771 30.871 22.7005 30.1815C23.7215 29.492 24.2344 28.5291 24.2344 27.2976C24.2344 26.4726 24.0142 25.7638 23.5739 25.1759C23.1336 24.588 22.5118 24.138 21.7062 23.8259M17.1675 20.3542C17.7095 20.3542 18.1038 20.4413 18.3554 20.6179C18.607 20.7945 18.7304 21.0582 18.7304 21.409C18.7304 21.7598 18.6046 22.009 18.3554 22.1905C18.1038 22.3743 17.7095 22.4638 17.1675 22.4638H15.9893C15.4063 22.4638 14.9345 21.9921 14.9345 21.409C14.9345 20.826 15.4063 20.3542 15.9893 20.3542H17.1675ZM19.0062 27.5831C18.7425 27.7718 18.3457 27.8686 17.8183 27.8686H15.9917C15.4087 27.8686 14.9369 27.3968 14.9369 26.8138V26.6928C14.9369 26.1097 15.4087 25.638 15.9917 25.638H17.8183C18.3457 25.638 18.7425 25.7323 19.0062 25.921C19.2699 26.1097 19.403 26.388 19.403 26.7533C19.403 27.1186 19.2699 27.3968 19.0062 27.5855" fill="#010101"/>
<path d="M36.8 23.8283C36.7661 23.8162 36.7298 23.8041 36.6959 23.792C37.2717 23.4896 37.729 23.1074 38.0604 22.6404C38.4596 22.0792 38.6604 21.438 38.6604 20.7219C38.6604 19.6381 38.1935 18.7502 37.2596 18.051C36.3258 17.3542 34.8766 17.0059 32.9145 17.0059H26.3751C25.7921 17.0059 25.3203 17.4776 25.3203 18.0607V30.1621C25.3203 30.7452 25.7921 31.2169 26.3751 31.2169H33.3186C35.2806 31.2169 36.7734 30.871 37.7967 30.1815C38.8177 29.492 39.3306 28.5291 39.3306 27.2976C39.3306 26.4726 39.1104 25.7638 38.6701 25.1759C38.2298 24.588 37.608 24.138 36.8024 23.8259M32.2638 20.3542C32.8057 20.3542 33.2 20.4413 33.4516 20.6179C33.7032 20.7945 33.8266 21.0582 33.8266 21.409C33.8266 21.7598 33.7008 22.009 33.4516 22.1905C33.2 22.3743 32.8057 22.4638 32.2638 22.4638H31.0855C30.5025 22.4638 30.0307 21.9921 30.0307 21.409C30.0307 20.826 30.5025 20.3542 31.0855 20.3542H32.2638ZM34.1024 27.5831C33.8387 27.7718 33.442 27.8686 32.9145 27.8686H31.088C30.5049 27.8686 30.0331 27.3968 30.0331 26.8138V26.6928C30.0331 26.1097 30.5049 25.638 31.088 25.638H32.9145C33.442 25.638 33.8387 25.7323 34.1024 25.921C34.3661 26.1097 34.4992 26.388 34.4992 26.7533C34.4992 27.1186 34.3661 27.3968 34.1024 27.5855" fill="#010101"/>
<path d="M38.7865 8.10742H32.4987V8.33484H38.7865C42.3937 8.33484 45.3283 11.2525 45.3283 14.838V44.898H11.2136C7.60636 44.898 4.67173 41.9803 4.67173 38.3948V8.33484H16.2893V8.10742H4.44189V38.3948C4.44189 42.1061 7.48056 45.123 11.2136 45.123H45.5558V14.838C45.5558 11.1267 42.5195 8.10984 38.7865 8.10984" fill="#010101"/>
</g>
<defs>
<clipPath id="clip0_257_26">
<rect width="50" height="50" fill="white"/>
</clipPath>
</defs>
</svg>
