<svg width="20" height="21" viewBox="0 0 20 21" fill="none" xmlns="http://www.w3.org/2000/svg">
<path fill-rule="evenodd" clip-rule="evenodd" d="M9.58333 2.79166C5.55625 2.79166 2.29166 6.05625 2.29166 10.0833C2.29166 14.1104 5.55625 17.375 9.58333 17.375C13.6104 17.375 16.875 14.1104 16.875 10.0833C16.875 6.05625 13.6104 2.79166 9.58333 2.79166ZM1.04166 10.0833C1.04166 5.36589 4.8659 1.54166 9.58333 1.54166C14.3008 1.54166 18.125 5.36589 18.125 10.0833C18.125 12.2171 17.3426 14.1681 16.0491 15.6652L18.7753 18.3914C19.0194 18.6355 19.0194 19.0312 18.7753 19.2753C18.5312 19.5193 18.1355 19.5193 17.8914 19.2753L15.1652 16.549C13.6681 17.8426 11.7171 18.625 9.58333 18.625C4.8659 18.625 1.04166 14.8008 1.04166 10.0833Z" fill="#666666"/>
</svg>
