<svg width="24" height="24" viewBox="0 0 24 24" fill="none" xmlns="http://www.w3.org/2000/svg">
<g clip-path="url(#clip0_1_688)">
<rect width="24" height="24" fill="#FFECE8"/>
<path d="M18.6752 8.69896C18.5185 8.10987 18.0549 7.64515 17.4651 7.48587C16.3988 7.20005 12.1202 7.20005 12.1202 7.20005C12.1202 7.20005 7.84388 7.20005 6.77534 7.48587C6.18775 7.64296 5.7242 8.10769 5.56533 8.69896C5.28024 9.76805 5.28024 12.0001 5.28024 12.0001C5.28024 12.0001 5.28024 14.2321 5.56533 15.3011C5.72202 15.8902 6.18557 16.355 6.77534 16.5142C7.84388 16.8001 12.1202 16.8001 12.1202 16.8001C12.1202 16.8001 16.3988 16.8001 17.4651 16.5142C18.0527 16.3571 18.5163 15.8924 18.6752 15.3011C18.9602 14.2321 18.9602 12.0001 18.9602 12.0001C18.9602 12.0001 18.9602 9.76805 18.6752 8.69896Z" fill="#FF3000"/>
<path d="M10.7535 14.0575L14.3074 12.0001L10.7535 9.9426V14.0575Z" fill="white"/>
</g>
<defs>
<clipPath id="clip0_1_688">
<rect width="24" height="24" rx="12" fill="white"/>
</clipPath>
</defs>
</svg>
